# Blender v2.79 (sub 0) OBJ File: 'Bowl.blend'
# www.blender.org
mtllib Bowl.mtl
o Cylinder
v 0.000000 -1.052860 -1.000000
v 0.195090 -1.052860 -0.980785
v 0.382683 -1.052860 -0.923880
v 0.555570 -1.052860 -0.831470
v 0.707107 -1.052860 -0.707107
v 0.831470 -1.052860 -0.555570
v 0.923880 -1.052860 -0.382683
v 0.980785 -1.052860 -0.195090
v 1.000000 -1.052860 -0.000000
v 0.980785 -1.052860 0.195090
v 0.923880 -1.052860 0.382683
v 0.831470 -1.052860 0.555570
v 0.707107 -1.052860 0.707107
v 0.555570 -1.052860 0.831470
v 0.382683 -1.052860 0.923880
v 0.195090 -1.052860 0.980785
v -0.000000 -1.052860 1.000000
v -0.195091 -1.052860 0.980785
v -0.382684 -1.052860 0.923879
v -0.555571 -1.052860 0.831469
v -0.707107 -1.052860 0.707106
v -0.831470 -1.052860 0.555570
v -0.923880 -1.052860 0.382683
v -0.980785 -1.052860 0.195089
v -1.000000 -1.052860 -0.000001
v -0.980785 -1.052860 -0.195091
v -0.923879 -1.052860 -0.382684
v -0.831469 -1.052860 -0.555571
v -0.707106 -1.052860 -0.707108
v -0.555569 -1.052860 -0.831470
v -0.382682 -1.052860 -0.923880
v -0.195089 -1.052860 -0.980786
v 0.289802 -0.023093 -1.456931
v -0.000000 -0.023093 -1.485474
v 0.568466 -0.023093 -1.372399
v 0.825285 -0.023093 -1.235127
v 1.050389 -0.023093 -1.050389
v 1.235127 -0.023093 -0.825285
v 1.372399 -0.023093 -0.568466
v 1.456931 -0.023093 -0.289802
v 1.485474 -0.023093 0.000000
v 1.456931 -0.023093 0.289802
v 1.372399 -0.023093 0.568466
v 1.235127 -0.023093 0.825285
v 1.050389 -0.023093 1.050389
v 0.825285 -0.023093 1.235127
v 0.568466 -0.023093 1.372400
v 0.289801 -0.023093 1.456932
v -0.000001 -0.023093 1.485474
v -0.289802 -0.023093 1.456932
v -0.568467 -0.023093 1.372399
v -0.825286 -0.023093 1.235127
v -1.050390 -0.023093 1.050388
v -1.235128 -0.023093 0.825285
v -1.372400 -0.023093 0.568465
v -1.456932 -0.023093 0.289801
v -1.485474 -0.023093 -0.000001
v -1.456931 -0.023093 -0.289803
v -1.372399 -0.023093 -0.568468
v -1.235126 -0.023093 -0.825287
v -1.050388 -0.023093 -1.050390
v -0.825284 -0.023093 -1.235128
v -0.568465 -0.023093 -1.372400
v -0.289799 -0.023093 -1.456932
v 0.237963 -0.774723 1.196324
v 0.195090 -1.052860 0.980785
v 0.466782 -0.774723 1.126913
v 0.382683 -1.052860 0.923880
v 0.677663 -0.774723 1.014195
v 0.555570 -1.052860 0.831470
v 0.862502 -0.774723 0.862502
v 0.707107 -1.052860 0.707107
v 1.014195 -0.774723 0.677663
v 0.831470 -1.052860 0.555570
v 1.126913 -0.774723 0.466782
v 0.923880 -1.052860 0.382683
v 1.196324 -0.774723 0.237964
v 0.980785 -1.052860 0.195090
v 1.219762 -0.774723 -0.000000
v 1.000000 -1.052860 -0.000000
v 1.196324 -0.774723 -0.237964
v 0.980785 -1.052860 -0.195090
v 1.126913 -0.774723 -0.466782
v 0.923880 -1.052860 -0.382683
v 1.014195 -0.774723 -0.677663
v 0.831470 -1.052860 -0.555570
v 0.862502 -0.774723 -0.862502
v 0.707107 -1.052860 -0.707107
v 0.677663 -0.774723 -1.014195
v 0.555570 -1.052860 -0.831470
v 0.466783 -0.774723 -1.126913
v 0.382683 -1.052860 -0.923880
v -0.000000 -0.774723 -1.219761
v 0.237964 -0.774723 -1.196324
v 0.195090 -1.052860 -0.980785
v 0.000000 -1.052860 -1.000000
v -0.000000 -1.052860 1.000000
v -0.000000 -0.774723 1.219762
v -0.195091 -1.052860 0.980785
v -0.237964 -0.774723 1.196324
v -0.382684 -1.052860 0.923879
v -0.466783 -0.774723 1.126913
v -0.555571 -1.052860 0.831469
v -0.677664 -0.774723 1.014194
v -0.707107 -1.052860 0.707106
v -0.862502 -0.774723 0.862501
v -0.831470 -1.052860 0.555570
v -1.014195 -0.774723 0.677663
v -0.923880 -1.052860 0.382683
v -1.126913 -0.774723 0.466782
v -0.980785 -1.052860 0.195089
v -1.196324 -0.774723 0.237963
v -1.000000 -1.052860 -0.000001
v -1.219762 -0.774723 -0.000001
v -0.980785 -1.052860 -0.195091
v -1.196324 -0.774723 -0.237965
v -0.923879 -1.052860 -0.382684
v -1.126912 -0.774723 -0.466784
v -0.831469 -1.052860 -0.555571
v -1.014194 -0.774723 -0.677664
v -0.707106 -1.052860 -0.707108
v -0.862501 -0.774723 -0.862503
v -0.555569 -1.052860 -0.831470
v -0.677662 -0.774723 -1.014196
v -0.382682 -1.052860 -0.923880
v -0.466781 -0.774723 -1.126913
v -0.195089 -1.052860 -0.980786
v -0.237962 -0.774723 -1.196324
v 0.268496 -0.436211 -1.349820
v -0.000000 -0.436211 -1.376264
v 0.526673 -0.436211 -1.271502
v 0.764611 -0.436211 -1.144322
v 0.973166 -0.436211 -0.973166
v 1.144322 -0.436211 -0.764611
v 1.271502 -0.436211 -0.526673
v 1.349820 -0.436211 -0.268496
v 1.376264 -0.436211 0.000000
v 1.349820 -0.436211 0.268496
v 1.271502 -0.436211 0.526673
v 1.144322 -0.436211 0.764611
v 0.973166 -0.436211 0.973166
v 0.764611 -0.436211 1.144322
v 0.526673 -0.436211 1.271503
v 0.268495 -0.436211 1.349820
v -0.000000 -0.436211 1.376264
v -0.268496 -0.436211 1.349820
v -0.526674 -0.436211 1.271502
v -0.764612 -0.436211 1.144322
v -0.973166 -0.436211 0.973165
v -1.144323 -0.436211 0.764611
v -1.271503 -0.436211 0.526673
v -1.349820 -0.436211 0.268495
v -1.376264 -0.436211 -0.000001
v -1.349819 -0.436211 -0.268497
v -1.271502 -0.436211 -0.526675
v -1.144321 -0.436211 -0.764613
v -0.973165 -0.436211 -0.973167
v -0.764610 -0.436211 -1.144323
v -0.526672 -0.436211 -1.271503
v -0.268494 -0.436211 -1.349820
v 0.289802 -0.023093 -1.456931
v -0.000000 -0.023093 -1.485474
v 0.568466 -0.023093 -1.372399
v 0.825285 -0.023093 -1.235127
v 1.050389 -0.023093 -1.050389
v 1.235127 -0.023093 -0.825285
v 1.372399 -0.023093 -0.568466
v 1.456931 -0.023093 -0.289802
v 1.485474 -0.023093 0.000000
v 1.456931 -0.023093 0.289802
v 1.372399 -0.023093 0.568466
v 1.235127 -0.023093 0.825285
v 1.050389 -0.023093 1.050389
v 0.825285 -0.023093 1.235127
v 0.568466 -0.023093 1.372400
v 0.289801 -0.023093 1.456932
v -0.000001 -0.023093 1.485474
v -0.289802 -0.023093 1.456932
v -0.568467 -0.023093 1.372399
v -0.825286 -0.023093 1.235127
v -1.050390 -0.023093 1.050388
v -1.235128 -0.023093 0.825285
v -1.372400 -0.023093 0.568465
v -1.456932 -0.023093 0.289801
v -1.485474 -0.023093 -0.000001
v -1.456931 -0.023093 -0.289803
v -1.372399 -0.023093 -0.568468
v -1.235126 -0.023093 -0.825287
v -1.050388 -0.023093 -1.050390
v -0.825284 -0.023093 -1.235128
v -0.568465 -0.023093 -1.372400
v -0.289799 -0.023093 -1.456932
vn 0.0000 0.0000 1.0000
vn 0.0000 -1.0000 -0.0000
vn -0.0770 -0.6181 -0.7823
vn -0.2282 -0.6181 -0.7522
vn 0.4282 -0.4180 -0.8012
vn -0.3706 -0.6181 -0.6933
vn -0.4987 -0.6181 -0.6077
vn -0.6077 -0.6181 -0.4987
vn -0.6933 -0.6181 -0.3706
vn -0.7522 -0.6181 -0.2282
vn -0.7823 -0.6181 -0.0771
vn -0.7823 -0.6181 0.0770
vn -0.7522 -0.6181 0.2282
vn -0.6933 -0.6181 0.3706
vn -0.6077 -0.6181 0.4987
vn -0.4987 -0.6181 0.6077
vn -0.3706 -0.6181 0.6933
vn -0.2282 -0.6181 0.7522
vn -0.0771 -0.6181 0.7823
vn 0.0770 -0.6181 0.7823
vn 0.2282 -0.6181 0.7522
vn 0.3706 -0.6181 0.6933
vn 0.4987 -0.6181 0.6077
vn 0.6077 -0.6181 0.4987
vn 0.6933 -0.6181 0.3706
vn 0.7522 -0.6181 0.2282
vn 0.7823 -0.6181 0.0771
vn 0.7823 -0.6181 -0.0771
vn 0.7522 -0.6181 -0.2282
vn 0.6933 -0.6181 -0.3706
vn 0.6077 -0.6181 -0.4987
vn 0.4987 -0.6181 -0.6077
vn 0.3706 -0.6181 -0.6933
vn 0.2282 -0.6181 -0.7522
vn 0.0771 -0.6181 -0.7823
vn -0.6135 -0.2544 0.7476
vn 0.7022 -0.4180 0.5763
vn -0.7022 -0.4180 0.5763
vn -0.4282 -0.4180 -0.8012
vn 0.9041 -0.4180 -0.0890
vn -0.0890 -0.4180 0.9041
vn -0.8693 -0.4180 -0.2637
vn 0.5763 -0.4180 -0.7022
vn 0.5763 -0.4180 0.7022
vn -0.8012 -0.4180 0.4282
vn -0.2637 -0.4180 -0.8693
vn 0.9041 -0.4180 0.0890
vn -0.2637 -0.4180 0.8693
vn -0.8012 -0.4180 -0.4282
vn 0.7022 -0.4180 -0.5763
vn 0.4282 -0.4180 0.8012
vn -0.8693 -0.4180 0.2637
vn 0.0890 -0.4180 -0.9041
vn -0.0890 -0.4180 -0.9041
vn 0.8693 -0.4180 0.2637
vn -0.4282 -0.4180 0.8012
vn -0.7022 -0.4180 -0.5763
vn 0.8012 -0.4180 -0.4282
vn 0.2637 -0.4180 0.8693
vn -0.9041 -0.4180 0.0890
vn 0.2637 -0.4180 -0.8693
vn 0.8012 -0.4180 0.4282
vn -0.5763 -0.4180 0.7022
vn -0.5763 -0.4180 -0.7022
vn 0.8693 -0.4180 -0.2637
vn 0.0890 -0.4180 0.9041
vn -0.9041 -0.4180 -0.0890
vn 0.9254 -0.2544 -0.2807
vn -0.7476 -0.2544 0.6135
vn 0.9624 -0.2544 -0.0948
vn -0.8529 -0.2544 0.4559
vn 0.9624 -0.2544 0.0948
vn -0.9254 -0.2544 0.2807
vn 0.9254 -0.2544 0.2807
vn -0.9624 -0.2544 0.0948
vn 0.8529 -0.2544 0.4559
vn -0.9624 -0.2544 -0.0948
vn 0.7476 -0.2544 0.6135
vn -0.9254 -0.2544 -0.2807
vn 0.6135 -0.2544 0.7476
vn -0.8529 -0.2544 -0.4559
vn 0.4559 -0.2544 0.8529
vn 0.0948 -0.2544 -0.9624
vn -0.7476 -0.2544 -0.6135
vn 0.2807 -0.2544 0.9254
vn 0.2807 -0.2544 -0.9254
vn -0.6135 -0.2544 -0.7476
vn 0.0948 -0.2544 0.9624
vn 0.4559 -0.2544 -0.8529
vn -0.4559 -0.2544 -0.8529
vn -0.0948 -0.2544 0.9624
vn 0.6135 -0.2544 -0.7476
vn -0.2807 -0.2544 -0.9255
vn -0.2807 -0.2544 0.9254
vn 0.7476 -0.2544 -0.6135
vn -0.0948 -0.2544 -0.9624
vn -0.4559 -0.2544 0.8529
vn 0.8529 -0.2544 -0.4559
usemtl None
s off
f 3//1 2//1 95//1 92//1
f 1//2 2//2 3//2 4//2 5//2 6//2 7//2 8//2 9//2 10//2 11//2 12//2 13//2 14//2 15//2 16//2 17//2 18//2 19//2 20//2 21//2 22//2 23//2 24//2 25//2 26//2 27//2 28//2 29//2 30//2 31//2 32//2
f 33//1 35//1 163//1 161//1
f 60//1 61//1 189//1 188//1
f 29//1 28//1 119//1 121//1
f 34//1 33//1 161//1 162//1
f 20//1 19//1 101//1 103//1
f 59//1 60//1 188//1 187//1
f 11//1 10//1 78//1 76//1
f 58//1 59//1 187//1 186//1
f 57//1 58//1 186//1 185//1
f 28//1 27//1 117//1 119//1
f 2//1 1//1 96//1 95//1
f 19//1 18//1 99//1 101//1
f 56//1 57//1 185//1 184//1
f 10//1 9//1 80//1 78//1
f 55//1 56//1 184//1 183//1
f 54//1 55//1 183//1 182//1
f 27//1 26//1 115//1 117//1
f 18//1 17//1 97//1 99//1
f 53//1 54//1 182//1 181//1
f 9//1 8//1 82//1 80//1
f 52//1 53//1 181//1 180//1
f 51//1 52//1 180//1 179//1
f 26//1 25//1 113//1 115//1
f 50//1 51//1 179//1 178//1
f 17//1 16//1 66//1 97//1
f 8//1 7//1 84//1 82//1
f 49//1 50//1 178//1 177//1
f 48//1 49//1 177//1 176//1
f 25//1 24//1 111//1 113//1
f 47//1 48//1 176//1 175//1
f 16//1 15//1 68//1 66//1
f 7//1 6//1 86//1 84//1
f 127//3 128//3 93//3 96//3
f 46//1 47//1 175//1 174//1
f 1//1 32//1 127//1 96//1
f 45//1 46//1 174//1 173//1
f 24//1 23//1 109//1 111//1
f 44//1 45//1 173//1 172//1
f 15//1 14//1 70//1 68//1
f 6//1 5//1 88//1 86//1
f 43//1 44//1 172//1 171//1
f 32//1 31//1 125//1 127//1
f 42//1 43//1 171//1 170//1
f 23//1 22//1 107//1 109//1
f 14//1 13//1 72//1 70//1
f 41//1 42//1 170//1 169//1
f 5//1 4//1 90//1 88//1
f 40//1 41//1 169//1 168//1
f 31//1 30//1 123//1 125//1
f 39//1 40//1 168//1 167//1
f 22//1 21//1 105//1 107//1
f 38//1 39//1 167//1 166//1
f 13//1 12//1 74//1 72//1
f 64//1 34//1 162//1 192//1
f 4//1 3//1 92//1 90//1
f 37//1 38//1 166//1 165//1
f 63//1 64//1 192//1 191//1
f 30//1 29//1 121//1 123//1
f 36//1 37//1 165//1 164//1
f 21//1 20//1 103//1 105//1
f 62//1 63//1 191//1 190//1
f 35//1 36//1 164//1 163//1
f 12//1 11//1 76//1 74//1
f 61//1 62//1 190//1 189//1
f 125//4 126//4 128//4 127//4
f 89//5 91//5 131//5 132//5
f 123//6 124//6 126//6 125//6
f 121//7 122//7 124//7 123//7
f 119//8 120//8 122//8 121//8
f 117//9 118//9 120//9 119//9
f 115//10 116//10 118//10 117//10
f 113//11 114//11 116//11 115//11
f 111//12 112//12 114//12 113//12
f 109//13 110//13 112//13 111//13
f 107//14 108//14 110//14 109//14
f 105//15 106//15 108//15 107//15
f 103//16 104//16 106//16 105//16
f 101//17 102//17 104//17 103//17
f 99//18 100//18 102//18 101//18
f 97//19 98//19 100//19 99//19
f 66//20 65//20 98//20 97//20
f 68//21 67//21 65//21 66//21
f 70//22 69//22 67//22 68//22
f 72//23 71//23 69//23 70//23
f 74//24 73//24 71//24 72//24
f 76//25 75//25 73//25 74//25
f 78//26 77//26 75//26 76//26
f 80//27 79//27 77//27 78//27
f 82//28 81//28 79//28 80//28
f 84//29 83//29 81//29 82//29
f 86//30 85//30 83//30 84//30
f 88//31 87//31 85//31 86//31
f 90//32 89//32 87//32 88//32
f 92//33 91//33 89//33 90//33
f 95//34 94//34 91//34 92//34
f 96//35 93//35 94//35 95//35
f 149//36 148//36 180//36 181//36
f 71//37 73//37 140//37 141//37
f 108//38 106//38 149//38 150//38
f 126//39 124//39 158//39 159//39
f 79//40 81//40 136//40 137//40
f 100//41 98//41 145//41 146//41
f 118//42 116//42 154//42 155//42
f 87//43 89//43 132//43 133//43
f 69//44 71//44 141//44 142//44
f 110//45 108//45 150//45 151//45
f 128//46 126//46 159//46 160//46
f 77//47 79//47 137//47 138//47
f 102//48 100//48 146//48 147//48
f 120//49 118//49 155//49 156//49
f 85//50 87//50 133//50 134//50
f 67//51 69//51 142//51 143//51
f 112//52 110//52 151//52 152//52
f 94//53 93//53 130//53 129//53
f 93//54 128//54 160//54 130//54
f 75//55 77//55 138//55 139//55
f 104//56 102//56 147//56 148//56
f 122//57 120//57 156//57 157//57
f 83//58 85//58 134//58 135//58
f 65//59 67//59 143//59 144//59
f 114//60 112//60 152//60 153//60
f 91//61 94//61 129//61 131//61
f 73//62 75//62 139//62 140//62
f 106//63 104//63 148//63 149//63
f 124//64 122//64 157//64 158//64
f 81//65 83//65 135//65 136//65
f 98//66 65//66 144//66 145//66
f 116//67 114//67 153//67 154//67
f 136//68 135//68 167//68 168//68
f 150//69 149//69 181//69 182//69
f 137//70 136//70 168//70 169//70
f 151//71 150//71 182//71 183//71
f 138//72 137//72 169//72 170//72
f 152//73 151//73 183//73 184//73
f 139//74 138//74 170//74 171//74
f 153//75 152//75 184//75 185//75
f 140//76 139//76 171//76 172//76
f 154//77 153//77 185//77 186//77
f 141//78 140//78 172//78 173//78
f 155//79 154//79 186//79 187//79
f 142//80 141//80 173//80 174//80
f 156//81 155//81 187//81 188//81
f 143//82 142//82 174//82 175//82
f 129//83 130//83 162//83 161//83
f 157//84 156//84 188//84 189//84
f 144//85 143//85 175//85 176//85
f 131//86 129//86 161//86 163//86
f 158//87 157//87 189//87 190//87
f 145//88 144//88 176//88 177//88
f 132//89 131//89 163//89 164//89
f 159//90 158//90 190//90 191//90
f 146//91 145//91 177//91 178//91
f 133//92 132//92 164//92 165//92
f 160//93 159//93 191//93 192//93
f 147//94 146//94 178//94 179//94
f 134//95 133//95 165//95 166//95
f 130//96 160//96 192//96 162//96
f 148//97 147//97 179//97 180//97
f 135//98 134//98 166//98 167//98
