# Blender v2.79 (sub 0) OBJ File: 'Bowl.blend'
# www.blender.org
mtllib Bowl.mtl
o Cylinder
v 0.000000 -1.052860 -1.000000
v 0.707107 -1.052860 -0.707107
v 0.831470 -1.052860 -0.555570
v 0.923880 -1.052860 -0.382683
v 0.980785 -1.052860 -0.195090
v 0.555570 -1.052860 0.831470
v 0.382683 -1.052860 0.923880
v -0.555571 -1.052860 0.831469
v -0.923880 -1.052860 0.382683
v -0.980785 -1.052860 -0.195091
v -0.831469 -1.052860 -0.555571
v -0.707106 -1.052860 -0.707108
v -0.382682 -1.052860 -0.923880
v -0.195089 -1.052860 -0.980786
v 0.825285 -0.023093 -1.235127
v 1.050389 -0.023093 -1.050389
v 1.372399 -0.023093 -0.568466
v 1.456931 -0.023093 -0.289802
v 1.456931 -0.023093 0.289802
v 0.825285 -0.023093 1.235127
v 0.289801 -0.023093 1.456932
v -0.568467 -0.023093 1.372399
v -0.825286 -0.023093 1.235127
v -1.050390 -0.023093 1.050388
v -1.485474 -0.023093 -0.000001
v -1.456931 -0.023093 -0.289803
v -1.372399 -0.023093 -0.568468
v -1.235126 -0.023093 -0.825287
v -1.050388 -0.023093 -1.050390
v -0.825284 -0.023093 -1.235128
v -0.568465 -0.023093 -1.372400
v 0.237963 -0.774723 1.196324
v 0.195090 -1.052860 0.980785
v 0.466782 -0.774723 1.126913
v 0.677663 -0.774723 1.014195
v 0.862502 -0.774723 0.862502
v 0.707107 -1.052860 0.707107
v 1.014195 -0.774723 0.677663
v 0.831470 -1.052860 0.555570
v 1.126913 -0.774723 0.466782
v 0.923880 -1.052860 0.382683
v 1.196324 -0.774723 0.237964
v 0.980785 -1.052860 0.195090
v 1.219762 -0.774723 -0.000000
v 1.000000 -1.052860 -0.000000
v 1.196324 -0.774723 -0.237964
v 1.126913 -0.774723 -0.466782
v 1.014195 -0.774723 -0.677663
v 0.862502 -0.774723 -0.862502
v 0.677663 -0.774723 -1.014195
v 0.555570 -1.052860 -0.831470
v 0.466783 -0.774723 -1.126913
v 0.382683 -1.052860 -0.923880
v -0.000000 -0.774723 -1.219761
v 0.237964 -0.774723 -1.196324
v 0.195090 -1.052860 -0.980785
v -0.000000 -1.052860 1.000000
v -0.000000 -0.774723 1.219762
v -0.195091 -1.052860 0.980785
v -0.237964 -0.774723 1.196324
v -0.382684 -1.052860 0.923879
v -0.466783 -0.774723 1.126913
v -0.677664 -0.774723 1.014194
v -0.707107 -1.052860 0.707106
v -0.862502 -0.774723 0.862501
v -0.831470 -1.052860 0.555570
v -1.014195 -0.774723 0.677663
v -1.126913 -0.774723 0.466782
v -0.980785 -1.052860 0.195089
v -1.196324 -0.774723 0.237963
v -1.000000 -1.052860 -0.000001
v -1.219762 -0.774723 -0.000001
v -1.196324 -0.774723 -0.237965
v -0.923879 -1.052860 -0.382684
v -1.126912 -0.774723 -0.466784
v -1.014194 -0.774723 -0.677664
v -0.862501 -0.774723 -0.862503
v -0.555569 -1.052860 -0.831470
v -0.677662 -0.774723 -1.014196
v -0.466781 -0.774723 -1.126913
v -0.237962 -0.774723 -1.196324
v 0.268496 -0.436211 -1.349820
v -0.000000 -0.436211 -1.376264
v 0.526673 -0.436211 -1.271502
v 0.764611 -0.436211 -1.144322
v 0.973166 -0.436211 -0.973166
v 1.144322 -0.436211 -0.764611
v 1.271502 -0.436211 -0.526673
v 1.349820 -0.436211 -0.268496
v 1.376264 -0.436211 0.000000
v 1.349820 -0.436211 0.268496
v 1.271502 -0.436211 0.526673
v 1.144322 -0.436211 0.764611
v 0.973166 -0.436211 0.973166
v 0.764611 -0.436211 1.144322
v 0.526673 -0.436211 1.271503
v 0.268495 -0.436211 1.349820
v -0.000000 -0.436211 1.376264
v -0.268496 -0.436211 1.349820
v -0.526674 -0.436211 1.271502
v -0.764612 -0.436211 1.144322
v -0.973166 -0.436211 0.973165
v -1.144323 -0.436211 0.764611
v -1.271503 -0.436211 0.526673
v -1.349820 -0.436211 0.268495
v -1.376264 -0.436211 -0.000001
v -1.349819 -0.436211 -0.268497
v -1.271502 -0.436211 -0.526675
v -1.144321 -0.436211 -0.764613
v -0.973165 -0.436211 -0.973167
v -0.764610 -0.436211 -1.144323
v -0.526672 -0.436211 -1.271503
v -0.268494 -0.436211 -1.349820
v 0.289802 -0.023093 -1.456931
v -0.000000 -0.023093 -1.485474
v 0.568466 -0.023093 -1.372399
v 1.235127 -0.023093 -0.825285
v 1.485474 -0.023093 0.000000
v 1.372399 -0.023093 0.568466
v 1.235127 -0.023093 0.825285
v 1.050389 -0.023093 1.050389
v 0.568466 -0.023093 1.372400
v -0.000001 -0.023093 1.485474
v -0.289802 -0.023093 1.456932
v -1.235128 -0.023093 0.825285
v -1.372400 -0.023093 0.568465
v -1.456932 -0.023093 0.289801
v -0.289799 -0.023093 -1.456932
v 0.765743 -0.023093 -1.146016
v 0.974606 -0.023093 -0.974606
v 1.273385 -0.023093 -0.527453
v 1.351818 -0.023093 -0.268893
v 1.351818 -0.023093 0.268893
v 0.765743 -0.023093 1.146016
v 0.268893 -0.023093 1.351818
v -0.527454 -0.023093 1.273385
v -0.765744 -0.023093 1.146016
v -0.974607 -0.023093 0.974606
v -1.378302 -0.023093 -0.000001
v -1.351818 -0.023093 -0.268895
v -1.273384 -0.023093 -0.527454
v -1.146015 -0.023093 -0.765745
v -0.974605 -0.023093 -0.974608
v -0.765742 -0.023093 -1.146017
v -0.527451 -0.023093 -1.273385
v 0.268893 -0.023093 -1.351818
v -0.000000 -0.023093 -1.378302
v 0.527453 -0.023093 -1.273384
v 1.146016 -0.023093 -0.765743
v 1.378302 -0.023093 0.000000
v 1.273385 -0.023093 0.527453
v 1.146016 -0.023093 0.765743
v 0.974606 -0.023093 0.974606
v 0.527453 -0.023093 1.273385
v -0.000000 -0.023093 1.378302
v -0.268894 -0.023093 1.351818
v -1.146017 -0.023093 0.765743
v -1.273385 -0.023093 0.527452
v -1.351818 -0.023093 0.268892
v -0.268891 -0.023093 -1.351818
v 0.723751 -0.276304 -1.083170
v 0.921160 -0.276304 -0.921160
v 1.203554 -0.276304 -0.498528
v 1.277686 -0.276304 -0.254148
v 1.277686 -0.276304 0.254148
v 0.723751 -0.276304 1.083170
v 0.254147 -0.276304 1.277686
v -0.498529 -0.276304 1.203554
v -0.723752 -0.276304 1.083170
v -0.921161 -0.276304 0.921160
v -1.302717 -0.276304 -0.000001
v -1.277686 -0.276304 -0.254149
v -1.203553 -0.276304 -0.498530
v -1.083169 -0.276304 -0.723752
v -0.921159 -0.276304 -0.921161
v -0.723750 -0.276304 -1.083171
v -0.498527 -0.276304 -1.203555
v 0.254148 -0.276304 -1.277686
v -0.000000 -0.276304 -1.302717
v 0.498528 -0.276304 -1.203554
v 1.083170 -0.276304 -0.723751
v 1.302717 -0.276304 -0.000000
v 1.203554 -0.276304 0.498528
v 1.083170 -0.276304 0.723751
v 0.921160 -0.276304 0.921160
v 0.498528 -0.276304 1.203554
v -0.000000 -0.276304 1.302717
v -0.254148 -0.276304 1.277686
v -1.083171 -0.276304 0.723750
v -1.203555 -0.276304 0.498527
v -1.277686 -0.276304 0.254147
v -0.254146 -0.276304 -1.277686
v 0.627447 -0.624470 -0.939041
v 0.798589 -0.624470 -0.798589
v 1.043406 -0.624470 -0.432193
v 1.107674 -0.624470 -0.220330
v 1.107674 -0.624470 0.220330
v 0.627447 -0.624470 0.939041
v 0.220330 -0.624470 1.107675
v -0.432194 -0.624470 1.043406
v -0.627448 -0.624470 0.939041
v -0.798589 -0.624470 0.798588
v -1.129375 -0.624470 -0.000001
v -1.107674 -0.624470 -0.220331
v -1.043406 -0.624470 -0.432194
v -0.939040 -0.624470 -0.627448
v -0.798588 -0.624470 -0.798590
v -0.627446 -0.624470 -0.939042
v -0.432192 -0.624470 -1.043407
v 0.220330 -0.624470 -1.107674
v -0.000000 -0.624470 -1.129375
v 0.432193 -0.624470 -1.043406
v 0.939041 -0.624470 -0.627447
v 1.129375 -0.624470 -0.000000
v 1.043406 -0.624470 0.432193
v 0.939041 -0.624470 0.627447
v 0.798589 -0.624470 0.798589
v 0.432193 -0.624470 1.043407
v -0.000000 -0.624470 1.129375
v -0.220331 -0.624470 1.107674
v -0.939042 -0.624470 0.627447
v -1.043407 -0.624470 0.432192
v -1.107675 -0.624470 0.220329
v -0.220328 -0.624470 -1.107675
v 0.438822 -0.835480 -0.656743
v 0.558514 -0.835480 -0.558514
v 0.729734 -0.835480 -0.302266
v 0.774682 -0.835480 -0.154094
v 0.774682 -0.835480 0.154094
v 0.438822 -0.835480 0.656743
v 0.154094 -0.835480 0.774682
v -0.302266 -0.835480 0.729734
v -0.438822 -0.835480 0.656743
v -0.558515 -0.835480 0.558514
v -0.789858 -0.835480 -0.000001
v -0.774681 -0.835480 -0.154095
v -0.729734 -0.835480 -0.302267
v -0.656743 -0.835480 -0.438823
v -0.558514 -0.835480 -0.558515
v -0.438821 -0.835480 -0.656744
v -0.302265 -0.835480 -0.729735
v 0.154094 -0.835480 -0.774682
v 0.000000 -0.835480 -0.789859
v 0.302266 -0.835480 -0.729734
v 0.656743 -0.835480 -0.438822
v 0.789858 -0.835480 -0.000000
v 0.729734 -0.835480 0.302266
v 0.656743 -0.835480 0.438822
v 0.558514 -0.835480 0.558514
v 0.302266 -0.835480 0.729734
v -0.000000 -0.835480 0.789858
v -0.154094 -0.835480 0.774682
v -0.656744 -0.835480 0.438821
v -0.729734 -0.835480 0.302265
v -0.774682 -0.835480 0.154093
v -0.154093 -0.835480 -0.774682
vn 0.0000 -0.8892 -0.4574
vn 0.0892 -0.8892 -0.4487
vn 0.1751 -0.8892 -0.4226
vn 0.2541 -0.8892 -0.3804
vn 0.3235 -0.8892 -0.3235
vn 0.3804 -0.8892 -0.2541
vn 0.4226 -0.8892 -0.1751
vn 0.4487 -0.8892 -0.0892
vn 0.4574 -0.8892 0.0000
vn 0.4487 -0.8892 0.0892
vn 0.4226 -0.8892 0.1751
vn 0.3804 -0.8892 0.2541
vn 0.3235 -0.8892 0.3235
vn 0.2541 -0.8892 0.3804
vn 0.1751 -0.8892 0.4226
vn 0.0892 -0.8892 0.4487
vn 0.0000 -0.8892 0.4574
vn -0.0892 -0.8892 0.4487
vn -0.1751 -0.8892 0.4226
vn -0.2541 -0.8892 0.3804
vn -0.3235 -0.8892 0.3235
vn -0.3804 -0.8892 0.2541
vn -0.4226 -0.8892 0.1751
vn -0.4487 -0.8892 0.0892
vn -0.4574 -0.8892 0.0000
vn -0.4487 -0.8892 -0.0892
vn -0.4226 -0.8892 -0.1751
vn -0.3804 -0.8892 -0.2541
vn -0.3235 -0.8892 -0.3235
vn -0.2541 -0.8892 -0.3804
vn -0.1751 -0.8892 -0.4226
vn -0.0892 -0.8892 -0.4487
vn -0.1666 -0.5202 -0.8376
vn 0.0000 -0.5202 -0.8540
vn -0.3268 -0.5202 -0.7890
vn 0.4745 -0.5202 -0.7101
vn 0.3268 -0.5202 -0.7890
vn 0.3603 -0.3372 -0.8698
vn 0.5230 -0.3372 -0.7828
vn -0.4745 -0.5202 -0.7101
vn -0.6039 -0.5202 -0.6039
vn -0.7101 -0.5202 -0.4745
vn -0.7890 -0.5202 -0.3268
vn -0.8376 -0.5202 -0.1666
vn -0.8540 -0.5202 0.0000
vn -0.8376 -0.5202 0.1666
vn -0.7890 -0.5202 0.3268
vn -0.7101 -0.5202 0.4745
vn -0.6039 -0.5202 0.6039
vn -0.4745 -0.5202 0.7101
vn -0.3268 -0.5202 0.7890
vn -0.1666 -0.5202 0.8376
vn 0.0000 -0.5202 0.8540
vn 0.1666 -0.5202 0.8376
vn 0.3268 -0.5202 0.7890
vn 0.4745 -0.5202 0.7101
vn 0.6039 -0.5202 0.6039
vn 0.7101 -0.5202 0.4745
vn 0.7890 -0.5202 0.3268
vn 0.8376 -0.5202 0.1666
vn 0.8540 -0.5202 0.0000
vn 0.8376 -0.5202 -0.1666
vn 0.7890 -0.5202 -0.3268
vn 0.7101 -0.5202 -0.4745
vn 0.6039 -0.5202 -0.6039
vn 0.1666 -0.5202 -0.8376
vn -0.6657 -0.3372 0.6657
vn -0.5230 -0.3372 0.7828
vn -0.4497 0.5872 0.6730
vn -0.5723 0.5872 0.5723
vn 0.7828 -0.3372 0.5230
vn 0.6657 -0.3372 0.6657
vn -0.7828 -0.3372 0.5230
vn -0.5230 -0.3372 -0.7828
vn -0.3603 -0.3372 -0.8698
vn 0.9233 -0.3372 -0.1837
vn 0.9414 -0.3372 0.0000
vn 0.0000 -0.3372 0.9414
vn -0.1837 -0.3372 0.9233
vn -0.9233 -0.3372 -0.1837
vn -0.8697 -0.3372 -0.3603
vn 0.6657 -0.3372 -0.6657
vn 0.5230 -0.3372 0.7828
vn -0.8698 -0.3372 0.3603
vn -0.1837 -0.3372 -0.9233
vn 0.9233 -0.3372 0.1837
vn -0.3603 -0.3372 0.8697
vn -0.7828 -0.3372 -0.5230
vn 0.7828 -0.3372 -0.5230
vn 0.3603 -0.3372 0.8697
vn -0.9233 -0.3372 0.1837
vn 0.0000 -0.3372 -0.9414
vn 0.1837 -0.3372 -0.9233
vn 0.8697 -0.3372 0.3603
vn -0.6657 -0.3372 -0.6657
vn 0.8697 -0.3372 -0.3603
vn 0.1837 -0.3372 0.9233
vn -0.9414 -0.3372 0.0000
vn 0.7478 0.5872 -0.3097
vn 0.7938 0.5872 -0.1579
vn -0.6730 0.5872 0.4497
vn 0.8094 0.5872 0.0000
vn -0.7478 0.5872 0.3097
vn 0.7938 0.5872 0.1579
vn -0.7938 0.5872 0.1579
vn 0.7478 0.5872 0.3097
vn -0.8094 0.5872 0.0000
vn 0.6730 0.5872 0.4497
vn -0.7938 0.5872 -0.1579
vn 0.5723 0.5872 0.5723
vn -0.7478 0.5872 -0.3097
vn 0.4497 0.5872 0.6730
vn -0.6730 0.5872 -0.4497
vn 0.3097 0.5872 0.7478
vn 0.0000 0.5872 -0.8094
vn 0.1579 0.5872 -0.7938
vn -0.5723 0.5872 -0.5723
vn 0.1579 0.5872 0.7938
vn 0.3097 0.5872 -0.7478
vn -0.4497 0.5872 -0.6730
vn 0.0000 0.5872 0.8094
vn 0.4497 0.5872 -0.6730
vn -0.3097 0.5872 -0.7478
vn -0.1579 0.5872 0.7938
vn 0.5723 0.5872 -0.5723
vn -0.1579 0.5872 -0.7938
vn -0.3097 0.5872 0.7478
vn 0.6730 0.5872 -0.4497
vn 0.4263 0.6411 0.6381
vn 0.2936 0.6411 0.7090
vn 0.0000 0.6411 0.7674
vn -0.1497 0.6411 0.7526
vn -0.7526 0.6411 -0.1497
vn -0.7090 0.6411 -0.2936
vn 0.1497 0.6411 0.7526
vn -0.6381 0.6411 0.4263
vn -0.7090 0.6411 0.2936
vn -0.6381 0.6411 -0.4263
vn -0.7526 0.6411 0.1497
vn -0.5426 0.6411 -0.5426
vn -0.2936 0.6411 0.7090
vn -0.4263 0.6411 -0.6381
vn -0.1497 0.6411 -0.7526
vn 0.0000 0.6411 -0.7674
vn -0.5426 0.6411 0.5426
vn -0.2936 0.6411 -0.7090
vn -0.7674 0.6411 0.0000
vn 0.2936 0.6411 -0.7090
vn 0.4263 0.6411 -0.6381
vn 0.5426 0.6411 -0.5426
vn 0.6381 0.6411 -0.4263
vn 0.7090 0.6411 -0.2936
vn 0.7526 0.6411 -0.1497
vn 0.7674 0.6411 0.0000
vn 0.1497 0.6411 -0.7526
vn 0.7526 0.6411 0.1497
vn -0.4263 0.6411 0.6381
vn 0.7090 0.6411 0.2936
vn 0.6381 0.6411 0.4263
vn 0.5426 0.6411 0.5426
vn -0.5171 -0.3654 0.7739
vn -0.3562 -0.3654 0.8600
vn -0.7739 -0.3654 0.5171
vn -0.6582 -0.3654 0.6582
vn -0.9130 -0.3654 0.1816
vn -0.8600 -0.3654 0.3562
vn -0.9308 -0.3654 0.0000
vn 0.0000 -0.3654 -0.9308
vn -0.1816 -0.3654 -0.9130
vn -0.9130 -0.3654 -0.1816
vn -0.3562 -0.3654 -0.8600
vn 0.5171 -0.3654 -0.7739
vn 0.3562 -0.3654 -0.8600
vn -0.8600 -0.3654 -0.3562
vn 0.7739 -0.3654 -0.5171
vn 0.6582 -0.3654 -0.6582
vn -0.7739 -0.3654 -0.5171
vn 0.8600 -0.3654 -0.3562
vn -0.6582 -0.3654 -0.6582
vn 0.9308 -0.3654 0.0000
vn 0.9130 -0.3654 -0.1816
vn -0.5171 -0.3654 -0.7739
vn 0.9130 -0.3654 0.1816
vn 0.8600 -0.3654 0.3562
vn 0.1816 -0.3654 -0.9130
vn 0.5171 -0.3654 0.7739
vn 0.6582 -0.3654 0.6582
vn 0.3562 -0.3654 0.8600
vn 0.7739 -0.3654 0.5171
vn 0.1816 -0.3654 0.9130
vn 0.0000 -0.3654 0.9308
vn -0.1816 -0.3654 0.9130
vn -0.6902 -0.6647 -0.2859
vn -0.7327 -0.6647 -0.1458
vn 0.6212 -0.6647 -0.4151
vn 0.5283 -0.6647 -0.5283
vn -0.6212 -0.6647 -0.4151
vn 0.6902 -0.6647 -0.2859
vn -0.5283 -0.6647 -0.5283
vn 0.7471 -0.6647 0.0000
vn 0.7327 -0.6647 -0.1458
vn -0.4151 -0.6647 -0.6212
vn 0.7327 -0.6647 0.1458
vn -0.2859 -0.6647 -0.6902
vn 0.6902 -0.6647 0.2859
vn 0.1458 -0.6647 -0.7327
vn 0.0000 -0.6647 -0.7471
vn 0.4151 -0.6647 0.6212
vn 0.5283 -0.6647 0.5283
vn 0.2859 -0.6647 -0.6902
vn 0.2859 -0.6647 0.6902
vn 0.6212 -0.6647 0.4151
vn 0.1457 -0.6647 0.7327
vn 0.4151 -0.6647 -0.6212
vn 0.0000 -0.6647 0.7471
vn -0.1458 -0.6647 0.7327
vn -0.2859 -0.6647 0.6902
vn -0.6902 -0.6647 0.2859
vn -0.6212 -0.6647 0.4151
vn -0.4151 -0.6647 0.6212
vn -0.5283 -0.6647 0.5283
vn -0.7327 -0.6647 0.1457
vn -0.7471 -0.6647 0.0000
vn -0.1457 -0.6647 -0.7327
vn -0.1612 -0.9570 -0.2412
vn -0.2052 -0.9570 -0.2052
vn 0.2846 -0.9570 0.0566
vn 0.2902 -0.9570 0.0000
vn -0.1110 -0.9570 -0.2681
vn 0.2681 -0.9570 0.1110
vn 0.0566 -0.9570 -0.2846
vn 0.0000 -0.9570 -0.2902
vn 0.1612 -0.9570 0.2412
vn 0.2052 -0.9570 0.2052
vn 0.1110 -0.9570 -0.2681
vn 0.1110 -0.9570 0.2681
vn 0.2412 -0.9570 0.1612
vn 0.0566 -0.9570 0.2846
vn 0.2052 -0.9570 -0.2052
vn 0.1612 -0.9570 -0.2412
vn 0.0000 -0.9570 0.2902
vn -0.0566 -0.9570 0.2846
vn 0.2846 -0.9570 -0.0566
vn 0.2681 -0.9570 -0.1110
vn -0.1110 -0.9570 0.2681
vn -0.2681 -0.9570 0.1110
vn -0.2412 -0.9570 0.1612
vn -0.1612 -0.9570 0.2412
vn -0.2052 -0.9570 0.2052
vn -0.2846 -0.9570 0.0566
vn -0.2902 -0.9570 0.0000
vn -0.0566 -0.9570 -0.2846
vn -0.2846 -0.9570 -0.0566
vn -0.2681 -0.9570 -0.1110
vn 0.2412 -0.9570 -0.1612
vn -0.2412 -0.9570 -0.1612
usemtl None
s 1
f 1//1 56//2 53//3 51//4 2//5 3//6 4//7 5//8 45//9 43//10 41//11 39//12 37//13 6//14 7//15 33//16 57//17 59//18 61//19 8//20 64//21 66//22 9//23 69//24 71//25 10//26 74//27 11//28 12//29 78//30 13//31 14//32
f 14//32 81//33 54//34 1//1
f 13//31 80//35 81//33 14//32
f 50//36 52//37 84//38 85//39
f 78//30 79//40 80//35 13//31
f 12//29 77//41 79//40 78//30
f 11//28 76//42 77//41 12//29
f 74//27 75//43 76//42 11//28
f 10//26 73//44 75//43 74//27
f 71//25 72//45 73//44 10//26
f 69//24 70//46 72//45 71//25
f 9//23 68//47 70//46 69//24
f 66//22 67//48 68//47 9//23
f 64//21 65//49 67//48 66//22
f 8//20 63//50 65//49 64//21
f 61//19 62//51 63//50 8//20
f 59//18 60//52 62//51 61//19
f 57//17 58//53 60//52 59//18
f 33//16 32//54 58//53 57//17
f 7//15 34//55 32//54 33//16
f 6//14 35//56 34//55 7//15
f 37//13 36//57 35//56 6//14
f 39//12 38//58 36//57 37//13
f 41//11 40//59 38//58 39//12
f 43//10 42//60 40//59 41//11
f 45//9 44//61 42//60 43//10
f 5//8 46//62 44//61 45//9
f 4//7 47//63 46//62 5//8
f 3//6 48//64 47//63 4//7
f 2//5 49//65 48//64 3//6
f 51//4 50//36 49//65 2//5
f 53//3 52//37 50//36 51//4
f 56//2 55//66 52//37 53//3
f 1//1 54//34 55//66 56//2
f 102//67 101//68 23//69 24//70
f 36//57 38//58 93//71 94//72
f 67//48 65//49 102//67 103//73
f 80//35 79//40 111//74 112//75
f 44//61 46//62 89//76 90//77
f 60//52 58//53 98//78 99//79
f 75//43 73//44 107//80 108//81
f 49//65 50//36 85//39 86//82
f 35//56 36//57 94//72 95//83
f 68//47 67//48 103//73 104//84
f 81//33 80//35 112//75 113//85
f 42//60 44//61 90//77 91//86
f 62//51 60//52 99//79 100//87
f 76//42 75//43 108//81 109//88
f 48//64 49//65 86//82 87//89
f 34//55 35//56 95//83 96//90
f 70//46 68//47 104//84 105//91
f 55//66 54//34 83//92 82//93
f 54//34 81//33 113//85 83//92
f 40//59 42//60 91//86 92//94
f 63//50 62//51 100//87 101//68
f 77//41 76//42 109//88 110//95
f 47//63 48//64 87//89 88//96
f 32//54 34//55 96//90 97//97
f 72//45 70//46 105//91 106//98
f 52//37 55//66 82//93 84//38
f 38//58 40//59 92//94 93//71
f 65//49 63//50 101//68 102//67
f 79//40 77//41 110//95 111//74
f 46//62 47//63 88//96 89//76
f 58//53 32//54 97//97 98//78
f 73//44 72//45 106//98 107//80
f 89//76 88//96 17//99 18//100
f 103//73 102//67 24//70 125//101
f 90//77 89//76 18//100 118//102
f 104//84 103//73 125//101 126//103
f 91//86 90//77 118//102 19//104
f 105//91 104//84 126//103 127//105
f 92//94 91//86 19//104 119//106
f 106//98 105//91 127//105 25//107
f 93//71 92//94 119//106 120//108
f 107//80 106//98 25//107 26//109
f 94//72 93//71 120//108 121//110
f 108//81 107//80 26//109 27//111
f 95//83 94//72 121//110 20//112
f 109//88 108//81 27//111 28//113
f 96//90 95//83 20//112 122//114
f 82//93 83//92 115//115 114//116
f 110//95 109//88 28//113 29//117
f 97//97 96//90 122//114 21//118
f 84//38 82//93 114//116 116//119
f 111//74 110//95 29//117 30//120
f 98//78 97//97 21//118 123//121
f 85//39 84//38 116//119 15//122
f 112//75 111//74 30//120 31//123
f 99//79 98//78 123//121 124//124
f 86//82 85//39 15//122 16//125
f 113//85 112//75 31//123 128//126
f 100//87 99//79 124//124 22//127
f 87//89 86//82 16//125 117//128
f 83//92 113//85 128//126 115//115
f 101//68 100//87 22//127 23//69
f 88//96 87//89 117//128 17//99
f 122//114 20//112 134//129 154//130
f 124//124 123//121 155//131 156//132
f 27//111 26//109 140//133 141//134
f 21//118 122//114 154//130 135//135
f 126//103 125//101 157//136 158//137
f 28//113 27//111 141//134 142//138
f 123//121 21//118 135//135 155//131
f 127//105 126//103 158//137 159//139
f 29//117 28//113 142//138 143//140
f 22//127 124//124 156//132 136//141
f 30//120 29//117 143//140 144//142
f 115//115 128//126 160//143 147//144
f 125//101 24//70 138//145 157//136
f 31//123 30//120 144//142 145//146
f 25//107 127//105 159//139 139//147
f 128//126 31//123 145//146 160//143
f 15//122 116//119 148//148 129//149
f 117//128 16//125 130//150 149//151
f 17//99 117//128 149//151 131//152
f 16//125 15//122 129//149 130//150
f 118//102 18//100 132//153 150//154
f 114//116 115//115 147//144 146//155
f 18//100 17//99 131//152 132//153
f 19//104 118//102 150//154 133//156
f 116//119 114//116 146//155 148//148
f 23//69 22//127 136//141 137//157
f 119//106 19//104 133//156 151//158
f 120//108 119//106 151//158 152//159
f 24//70 23//69 137//157 138//145
f 20//112 121//110 153//160 134//129
f 121//110 120//108 152//159 153//160
f 26//109 25//107 139//147 140//133
f 137//157 169//161 168//162 136//141
f 157//136 189//163 170//164 138//145
f 159//139 191//165 190//166 158//137
f 138//145 170//164 169//161 137//157
f 139//147 171//167 191//165 159//139
f 147//144 179//168 192//169 160//143
f 140//133 172//170 171//167 139//147
f 160//143 192//169 177//171 145//146
f 129//149 161//172 180//173 148//148
f 141//134 173//174 172//170 140//133
f 149//151 181//175 162//176 130//150
f 142//138 174//177 173//174 141//134
f 131//152 163//178 181//175 149//151
f 143//140 175//179 174//177 142//138
f 150//154 182//180 164//181 132//153
f 144//142 176//182 175//179 143//140
f 133//156 165//183 182//180 150//154
f 145//146 177//171 176//182 144//142
f 151//158 183//184 165//183 133//156
f 146//155 178//185 179//168 147//144
f 134//129 166//186 185//187 153//160
f 148//148 180//173 178//185 146//155
f 154//130 186//188 166//186 134//129
f 152//159 184//189 183//184 151//158
f 135//135 167//190 186//188 154//130
f 153//160 185//187 184//189 152//159
f 130//150 162//176 161//172 129//149
f 155//131 187//191 167//190 135//135
f 156//132 188//192 187//191 155//131
f 132//153 164//181 163//178 131//152
f 136//141 168//162 188//192 156//132
f 158//137 190//166 189//163 157//136
f 173//174 205//193 204//194 172//170
f 181//175 213//195 194//196 162//176
f 174//177 206//197 205//193 173//174
f 163//178 195//198 213//195 181//175
f 175//179 207//199 206//197 174//177
f 182//180 214//200 196//201 164//181
f 176//182 208//202 207//199 175//179
f 165//183 197//203 214//200 182//180
f 177//171 209//204 208//202 176//182
f 183//184 215//205 197//203 165//183
f 178//185 210//206 211//207 179//168
f 166//186 198//208 217//209 185//187
f 180//173 212//210 210//206 178//185
f 186//188 218//211 198//208 166//186
f 184//189 216//212 215//205 183//184
f 167//190 199//213 218//211 186//188
f 185//187 217//209 216//212 184//189
f 162//176 194//196 193//214 161//172
f 187//191 219//215 199//213 167//190
f 188//192 220//216 219//215 187//191
f 164//181 196//201 195//198 163//178
f 168//162 200//217 220//216 188//192
f 190//166 222//218 221//219 189//163
f 169//161 201//220 200//217 168//162
f 189//163 221//219 202//221 170//164
f 191//165 223//222 222//218 190//166
f 170//164 202//221 201//220 169//161
f 171//167 203//223 223//222 191//165
f 179//168 211//207 224//224 192//169
f 172//170 204//194 203//223 171//167
f 192//169 224//224 209//204 177//171
f 161//172 193//214 212//210 180//173
f 208//202 240//225 239//226 207//199
f 197//203 229//227 246//228 214//200
f 209//204 241//229 240//225 208//202
f 215//205 247//230 229//227 197//203
f 210//206 242//231 243//232 211//207
f 198//208 230//233 249//234 217//209
f 212//210 244//235 242//231 210//206
f 218//211 250//236 230//233 198//208
f 216//212 248//237 247//230 215//205
f 199//213 231//238 250//236 218//211
f 217//209 249//234 248//237 216//212
f 194//196 226//239 225//240 193//214
f 219//215 251//241 231//238 199//213
f 220//216 252//242 251//241 219//215
f 196//201 228//243 227//244 195//198
f 200//217 232//245 252//242 220//216
f 222//218 254//246 253//247 221//219
f 201//220 233//248 232//245 200//217
f 221//219 253//247 234//249 202//221
f 223//222 255//250 254//246 222//218
f 202//221 234//249 233//248 201//220
f 203//223 235//251 255//250 223//222
f 211//207 243//232 256//252 224//224
f 204//194 236//253 235//251 203//223
f 224//224 256//252 241//229 209//204
f 193//214 225//240 244//235 212//210
f 205//193 237//254 236//253 204//194
f 213//195 245//255 226//239 194//196
f 206//197 238//256 237//254 205//193
f 195//198 227//244 245//255 213//195
f 207//199 239//226 238//256 206//197
f 214//200 246//228 228//243 196//201
f 226//239 245//255 227//244 228//243 246//228 229//227 247//230 248//237 249//234 230//233 250//236 231//238 251//241 252//242 232//245 233//248 234//249 253//247 254//246 255//250 235//251 236//253 237//254 238//256 239//226 240//225 241//229 256//252 243//232 242//231 244//235 225//240
