# Blender v2.79 (sub 0) OBJ File: 'Dish.blend'
# www.blender.org
mtllib Dish.mtl
o Cylinder
v 0.697786 -0.540754 -0.743774
v 0.698116 -0.455171 -0.801340
v 0.892877 -0.540754 -0.724560
v 0.905396 -0.455171 -0.780924
v 1.080470 -0.540754 -0.667654
v 1.104711 -0.455171 -0.720463
v 1.253357 -0.540754 -0.575244
v 1.288400 -0.455171 -0.622279
v 1.404893 -0.540754 -0.450881
v 1.449404 -0.455171 -0.490146
v 1.529256 -0.540754 -0.299345
v 1.581538 -0.455171 -0.329141
v 1.621666 -0.540754 -0.126458
v 1.679722 -0.455171 -0.145452
v 1.678572 -0.540754 0.061135
v 1.740183 -0.455171 0.053862
v 1.697786 -0.540754 0.256226
v 1.760598 -0.455171 0.261142
v 1.678572 -0.540754 0.451316
v 1.740183 -0.455171 0.468422
v 1.621666 -0.540754 0.638909
v 1.679722 -0.455171 0.667736
v 1.529256 -0.540754 0.811796
v 1.581538 -0.455171 0.851425
v 1.404893 -0.540754 0.963332
v 1.449404 -0.455171 1.012430
v 1.253357 -0.540754 1.087695
v 1.288400 -0.455171 1.144564
v 1.080470 -0.540754 1.180105
v 1.104710 -0.455171 1.242747
v 0.892876 -0.540754 1.237011
v 0.905396 -0.455171 1.303209
v 0.697786 -0.540754 1.256226
v 0.698116 -0.455171 1.323624
v 0.502696 -0.540754 1.237011
v 0.490836 -0.455171 1.303208
v 0.315102 -0.540754 1.180105
v 0.291522 -0.455171 1.242747
v 0.142216 -0.540754 1.087695
v 0.107833 -0.455171 1.144563
v -0.009321 -0.540754 0.963332
v -0.053172 -0.455171 1.012430
v -0.133684 -0.540754 0.811795
v -0.185305 -0.455171 0.851425
v -0.226094 -0.540754 0.638908
v -0.283489 -0.455171 0.667736
v -0.282999 -0.540754 0.451315
v -0.343950 -0.455171 0.468421
v -0.302214 -0.540754 0.256225
v -0.364365 -0.455171 0.261141
v -0.282999 -0.540754 0.061134
v -0.343950 -0.455171 0.053861
v -0.226093 -0.540754 -0.126459
v -0.283488 -0.455171 -0.145453
v -0.133683 -0.540754 -0.299346
v -0.185304 -0.455171 -0.329142
v -0.009320 -0.540754 -0.450882
v -0.053171 -0.455171 -0.490147
v 0.142217 -0.540754 -0.575245
v 0.107834 -0.455171 -0.622280
v 0.315104 -0.540754 -0.667654
v 0.291524 -0.455171 -0.720464
v 0.502698 -0.540754 -0.724560
v 0.490838 -0.455171 -0.780924
v 0.987263 -0.370940 -1.192495
v 0.698116 -0.370940 -1.220973
v 1.265298 -0.370940 -1.108154
v 1.521536 -0.370940 -0.971192
v 1.746130 -0.370940 -0.786872
v 1.930451 -0.370940 -0.562277
v 2.067413 -0.370940 -0.306039
v 2.151753 -0.370940 -0.028004
v 2.180232 -0.370940 0.261142
v 2.151754 -0.370940 0.550289
v 2.067413 -0.370940 0.828323
v 1.930451 -0.370940 1.084562
v 1.746130 -0.370940 1.309156
v 1.521536 -0.370940 1.493477
v 1.265297 -0.370940 1.630439
v 0.987262 -0.370940 1.714779
v 0.698116 -0.370940 1.743258
v 0.408969 -0.370940 1.714779
v 0.130935 -0.370940 1.630438
v -0.125304 -0.370940 1.493476
v -0.349898 -0.370940 1.309156
v -0.534218 -0.370940 1.084561
v -0.671180 -0.370940 0.828323
v -0.755521 -0.370940 0.550287
v -0.783999 -0.370940 0.261141
v -0.755521 -0.370940 -0.028006
v -0.671179 -0.370940 -0.306040
v -0.534217 -0.370940 -0.562279
v -0.349896 -0.370940 -0.786873
v -0.125301 -0.370940 -0.971193
v 0.130937 -0.370940 -1.108155
v 0.408972 -0.370940 -1.192495
vn 0.0814 -0.5565 -0.8269
vn 0.2409 -0.5582 -0.7940
vn 0.3902 -0.5610 -0.7301
vn 0.5235 -0.5649 -0.6379
vn 0.6353 -0.5696 -0.5214
vn 0.7215 -0.5750 -0.3857
vn 0.7790 -0.5809 -0.2363
vn 0.8058 -0.5868 -0.0794
vn 0.8015 -0.5928 0.0789
vn 0.7667 -0.5984 0.2326
vn 0.7032 -0.6036 0.3758
vn 0.6137 -0.6081 0.5036
vn 0.5018 -0.6118 0.6115
vn 0.3719 -0.6146 0.6957
vn 0.2286 -0.6163 0.7536
vn 0.0771 -0.6170 0.7831
vn -0.0772 -0.6167 0.7834
vn -0.2288 -0.6152 0.7544
vn -0.3725 -0.6128 0.6969
vn -0.5030 -0.6094 0.6129
vn -0.6154 -0.6051 0.5051
vn -0.7055 -0.6001 0.3771
vn -0.7694 -0.5946 0.2334
vn -0.8044 -0.5887 0.0792
vn -0.8087 -0.5827 -0.0797
vn -0.7817 -0.5769 -0.2371
vn -0.7238 -0.5713 -0.3869
vn -0.6371 -0.5663 -0.5229
vn -0.5247 -0.5621 -0.6393
vn -0.3909 -0.5589 -0.7313
vn 0.1254 -0.9803 -0.1528
vn -0.2411 -0.5569 -0.7948
vn -0.0815 -0.5560 -0.8271
vn 0.0000 -1.0000 0.0000
vn 0.1254 -0.9803 0.1528
vn -0.1744 -0.9803 0.0932
vn -0.0574 -0.9803 -0.1892
vn 0.1968 -0.9803 0.0194
vn -0.0574 -0.9803 0.1892
vn -0.1744 -0.9803 -0.0932
vn 0.1528 -0.9803 -0.1254
vn 0.0932 -0.9803 0.1744
vn -0.1892 -0.9803 0.0574
vn 0.0194 -0.9803 -0.1968
vn -0.0194 -0.9803 -0.1968
vn 0.1892 -0.9803 0.0574
vn -0.0932 -0.9803 0.1744
vn -0.1528 -0.9803 -0.1254
vn 0.1744 -0.9803 -0.0932
vn 0.0574 -0.9803 0.1892
vn -0.1968 -0.9803 0.0194
vn 0.0574 -0.9803 -0.1892
vn 0.1744 -0.9803 0.0932
vn -0.1254 -0.9803 0.1528
vn -0.1254 -0.9803 -0.1528
vn 0.1892 -0.9803 -0.0574
vn 0.0194 -0.9803 0.1968
vn -0.1968 -0.9803 -0.0194
vn 0.0932 -0.9803 -0.1744
vn 0.1528 -0.9803 0.1254
vn -0.1528 -0.9803 0.1254
vn -0.0932 -0.9803 -0.1744
vn 0.1968 -0.9803 -0.0194
vn -0.0194 -0.9803 0.1968
vn -0.1892 -0.9803 -0.0574
usemtl None
s off
f 1//1 2//1 4//1 3//1
f 3//2 4//2 6//2 5//2
f 5//3 6//3 8//3 7//3
f 7//4 8//4 10//4 9//4
f 9//5 10//5 12//5 11//5
f 11//6 12//6 14//6 13//6
f 13//7 14//7 16//7 15//7
f 15//8 16//8 18//8 17//8
f 17//9 18//9 20//9 19//9
f 19//10 20//10 22//10 21//10
f 21//11 22//11 24//11 23//11
f 23//12 24//12 26//12 25//12
f 25//13 26//13 28//13 27//13
f 27//14 28//14 30//14 29//14
f 29//15 30//15 32//15 31//15
f 31//16 32//16 34//16 33//16
f 33//17 34//17 36//17 35//17
f 35//18 36//18 38//18 37//18
f 37//19 38//19 40//19 39//19
f 39//20 40//20 42//20 41//20
f 41//21 42//21 44//21 43//21
f 43//22 44//22 46//22 45//22
f 45//23 46//23 48//23 47//23
f 47//24 48//24 50//24 49//24
f 49//25 50//25 52//25 51//25
f 51//26 52//26 54//26 53//26
f 53//27 54//27 56//27 55//27
f 55//28 56//28 58//28 57//28
f 57//29 58//29 60//29 59//29
f 59//30 60//30 62//30 61//30
f 10//31 8//31 68//31 69//31
f 61//32 62//32 64//32 63//32
f 63//33 64//33 2//33 1//33
f 1//34 3//34 5//34 7//34 9//34 11//34 13//34 15//34 17//34 19//34 21//34 23//34 25//34 27//34 29//34 31//34 33//34 35//34 37//34 39//34 41//34 43//34 45//34 47//34 49//34 51//34 53//34 55//34 57//34 59//34 61//34 63//34
f 28//35 26//35 77//35 78//35
f 46//36 44//36 86//36 87//36
f 64//37 62//37 95//37 96//37
f 20//38 18//38 73//38 74//38
f 38//39 36//39 82//39 83//39
f 56//40 54//40 91//40 92//40
f 12//41 10//41 69//41 70//41
f 30//42 28//42 78//42 79//42
f 48//43 46//43 87//43 88//43
f 4//44 2//44 66//44 65//44
f 2//45 64//45 96//45 66//45
f 22//46 20//46 74//46 75//46
f 40//47 38//47 83//47 84//47
f 58//48 56//48 92//48 93//48
f 14//49 12//49 70//49 71//49
f 32//50 30//50 79//50 80//50
f 50//51 48//51 88//51 89//51
f 6//52 4//52 65//52 67//52
f 24//53 22//53 75//53 76//53
f 42//54 40//54 84//54 85//54
f 60//55 58//55 93//55 94//55
f 16//56 14//56 71//56 72//56
f 34//57 32//57 80//57 81//57
f 52//58 50//58 89//58 90//58
f 8//59 6//59 67//59 68//59
f 26//60 24//60 76//60 77//60
f 44//61 42//61 85//61 86//61
f 62//62 60//62 94//62 95//62
f 18//63 16//63 72//63 73//63
f 36//64 34//64 81//64 82//64
f 54//65 52//65 90//65 91//65
