# Blender v2.79 (sub 0) OBJ File: 'Dish.blend'
# www.blender.org
mtllib Dish.mtl
o Cylinder
v 1.186083 -0.892944 -1.625928
v 1.186083 -0.764090 -0.987170
v 1.115608 -0.892944 -1.632869
v 0.990992 -0.764090 -1.006384
v 1.047842 -0.892944 -1.653426
v 0.803399 -0.764090 -1.063290
v 0.985388 -0.892944 -1.686808
v 0.630512 -0.764090 -1.155700
v 0.930646 -0.892944 -1.731733
v 0.478976 -0.764090 -1.280063
v 0.885721 -0.892944 -1.786475
v 0.354613 -0.764090 -1.431600
v 0.852339 -0.892944 -1.848929
v 0.262203 -0.764090 -1.604487
v 0.831782 -0.892944 -1.916695
v 0.205298 -0.764090 -1.792080
v 0.824841 -0.892944 -1.987170
v 0.186083 -0.764090 -1.987170
v 0.831783 -0.892944 -2.057645
v 0.205298 -0.764090 -2.182261
v 0.852339 -0.892944 -2.125411
v 0.262204 -0.764090 -2.369854
v 0.885722 -0.892944 -2.187865
v 0.354614 -0.764090 -2.542741
v 0.930647 -0.892944 -2.242607
v 0.478977 -0.764090 -2.694277
v 0.985388 -0.892944 -2.287531
v 0.630514 -0.764090 -2.818640
v 1.047842 -0.892944 -2.320914
v 0.803401 -0.764090 -2.911050
v 0.990994 -0.764090 -2.967955
v 1.100215 -0.901976 -2.418859
v 1.017647 -0.901976 -2.393813
v 0.941551 -0.901976 -2.353138
v 0.874853 -0.901976 -2.298401
v 0.820115 -0.901976 -2.231702
v 0.779441 -0.901976 -2.155607
v 0.754394 -0.901976 -2.073039
v 0.745936 -0.901976 -1.987170
v 0.754394 -0.901976 -1.901302
v 0.779440 -0.901976 -1.818733
v 0.820114 -0.901976 -1.742638
v 0.874852 -0.901976 -1.675939
v 0.941550 -0.901976 -1.621201
v 1.017646 -0.901976 -1.580527
v 1.100215 -0.901976 -1.555480
v 1.186083 -0.901976 -1.547023
v 1.381173 -0.764090 -1.006384
v 1.271951 -0.901976 -1.555480
v 1.568766 -0.764090 -1.063290
v 1.354520 -0.901976 -1.580527
v 1.741653 -0.764090 -1.155700
v 1.430616 -0.901976 -1.621201
v 1.893190 -0.764090 -1.280063
v 1.497314 -0.901976 -1.675939
v 2.017553 -0.764090 -1.431599
v 1.552052 -0.901976 -1.742637
v 2.109963 -0.764090 -1.604486
v 1.592726 -0.901976 -1.818733
v 2.166868 -0.764090 -1.792079
v 1.617773 -0.901976 -1.901301
v 2.186083 -0.764090 -1.987170
v 1.626230 -0.901976 -1.987170
v 2.166868 -0.764090 -2.182260
v 1.617773 -0.901976 -2.073038
v 2.109963 -0.764090 -2.369853
v 1.592726 -0.901976 -2.155607
v 2.017553 -0.764090 -2.542740
v 1.552052 -0.901976 -2.231702
v 1.893190 -0.764090 -2.694276
v 1.497314 -0.901976 -2.298400
v 1.741653 -0.764090 -2.818639
v 1.430616 -0.901976 -2.353138
v 1.568767 -0.764090 -2.911049
v 1.354520 -0.901976 -2.393812
v 1.381173 -0.764090 -2.967955
v 1.271952 -0.901976 -2.418859
v 1.186083 -0.764090 -2.987170
v 1.186083 -0.901976 -2.427316
v 1.115609 -0.892944 -2.341470
v 1.256558 -0.892944 -1.632869
v 1.324324 -0.892944 -1.653426
v 1.386778 -0.892944 -1.686808
v 1.441520 -0.892944 -1.731733
v 1.486445 -0.892944 -1.786475
v 1.519827 -0.892944 -1.848929
v 1.061809 -0.839383 -1.362404
v 1.540384 -0.892944 -1.916695
v 0.735653 -0.839383 -2.437601
v 1.547325 -0.892944 -1.987170
v 0.942311 -0.839383 -1.398653
v 1.540384 -0.892944 -2.057644
v 0.832182 -0.839383 -2.516821
v 1.519827 -0.892944 -2.125411
v 0.832181 -0.839383 -1.457519
v 1.486445 -0.892944 -2.187865
v 0.942312 -0.839383 -2.575686
v 1.441520 -0.892944 -2.242606
v 0.735652 -0.839383 -1.536739
v 1.386778 -0.892944 -2.287531
v 0.656432 -0.839383 -1.633269
v 1.324324 -0.892944 -2.320914
v 1.256558 -0.892944 -2.341470
v 1.186083 -0.892944 -2.348412
v 0.656433 -0.839383 -2.341072
v 1.186083 -0.839383 -1.350164
v 0.597567 -0.839383 -2.230942
v 1.429855 -0.839383 -1.398653
v 0.561317 -0.839383 -2.111444
v 0.549077 -0.839383 -1.987170
v 1.636514 -0.839383 -1.536739
v 0.561317 -0.839383 -1.862897
v 1.715734 -0.839383 -1.633268
v 0.597566 -0.839383 -1.743399
v 1.774600 -0.839383 -1.743398
v 1.823089 -0.839383 -1.987170
v 1.774600 -0.839383 -2.230941
v 1.715734 -0.839383 -2.341071
v 1.636514 -0.839383 -2.437601
v 1.539984 -0.839383 -2.516820
v 1.429855 -0.839383 -2.575686
v 1.310357 -0.839383 -2.611936
v 1.061810 -0.839383 -2.611936
v 1.186083 -0.839383 -2.624176
v 1.310357 -0.839383 -1.362404
v 1.539984 -0.839383 -1.457519
v 1.810849 -0.839383 -1.862896
v 1.810849 -0.839383 -2.111443
v 0.409239 -0.804835 -2.308950
v 0.486942 -0.804835 -2.454322
v 1.186083 -0.804835 -1.146319
v 1.022041 -0.804835 -1.162475
v 0.591513 -0.804835 -2.581742
v 0.864303 -0.804835 -1.210325
v 0.718932 -0.804835 -2.686312
v 0.864305 -0.804835 -2.764015
v 0.718931 -0.804835 -1.288028
v 0.591511 -0.804835 -1.392599
v 0.486941 -0.804835 -1.520018
v 1.186083 -0.804835 -2.828021
v 1.507863 -0.804835 -1.210325
v 0.361389 -0.804835 -2.151212
v 0.345232 -0.804835 -1.987170
v 1.780654 -0.804835 -1.392598
v 0.361389 -0.804835 -1.823128
v 1.885225 -0.804835 -1.520018
v 0.409238 -0.804835 -1.665390
v 1.962928 -0.804835 -1.665390
v 2.026934 -0.804835 -1.987170
v 1.962928 -0.804835 -2.308949
v 1.885225 -0.804835 -2.454321
v 1.780654 -0.804835 -2.581741
v 1.653235 -0.804835 -2.686311
v 1.507863 -0.804835 -2.764014
v 1.350125 -0.804835 -2.811863
v 1.022043 -0.804835 -2.811864
v 1.350125 -0.804835 -1.162475
v 1.653235 -0.804835 -1.288028
v 2.010777 -0.804835 -1.823128
v 2.010777 -0.804835 -2.151212
vn -0.2197 0.9685 -0.1174
vn -0.1857 -0.9707 0.1524
vn -0.2384 0.9685 -0.0723
vn -0.1524 -0.9707 0.1857
vn -0.2479 0.9685 -0.0244
vn -0.1132 -0.9707 0.2119
vn -0.2479 0.9685 0.0244
vn -0.0697 -0.9707 0.2299
vn -0.2384 0.9685 0.0723
vn -0.0235 -0.9707 0.2391
vn -0.2197 0.9685 0.1174
vn 0.0235 -0.9707 0.2391
vn -0.1926 0.9685 0.1581
vn 0.0697 -0.9707 0.2299
vn -0.1581 0.9685 0.1926
vn 0.1132 -0.9707 0.2119
vn -0.1174 0.9685 0.2197
vn 0.1524 -0.9707 0.1857
vn -0.0723 0.9685 0.2384
vn 0.1857 -0.9707 0.1524
vn -0.0244 0.9685 0.2479
vn 0.2119 -0.9707 0.1132
vn 0.2197 0.9685 -0.1174
vn 0.2299 -0.9707 0.0697
vn 0.2384 0.9685 -0.0723
vn 0.2391 -0.9707 0.0235
vn 0.2479 0.9685 -0.0244
vn 0.2391 -0.9707 -0.0235
vn 0.2479 0.9685 0.0244
vn 0.2299 -0.9707 -0.0697
vn 0.2384 0.9685 0.0723
vn 0.2119 -0.9707 -0.1132
vn 0.2197 0.9685 0.1174
vn 0.1857 -0.9707 -0.1524
vn 0.1926 0.9685 0.1581
vn 0.1524 -0.9707 -0.1857
vn 0.1581 0.9685 0.1926
vn 0.1132 -0.9707 -0.2119
vn 0.1174 0.9685 0.2197
vn 0.0697 -0.9707 -0.2299
vn 0.0244 0.9685 0.2479
vn 0.0235 -0.9707 -0.2391
vn 0.0723 0.9685 0.2384
vn -0.2119 -0.9707 0.1132
vn -0.1926 0.9685 -0.1581
vn -0.2299 -0.9707 0.0697
vn -0.1581 0.9685 -0.1926
vn -0.2391 -0.9707 0.0235
vn -0.1174 0.9685 -0.2197
vn -0.2391 -0.9707 -0.0235
vn -0.0723 0.9685 -0.2384
vn -0.2299 -0.9707 -0.0697
vn -0.0244 0.9685 -0.2479
vn -0.2119 -0.9707 -0.1132
vn 0.0244 0.9685 -0.2479
vn -0.1857 -0.9707 -0.1524
vn 0.0723 0.9685 -0.2384
vn -0.1524 -0.9707 -0.1857
vn 0.1174 0.9685 -0.2197
vn -0.1132 -0.9707 -0.2119
vn 0.1581 0.9685 -0.1926
vn 0.0000 -1.0000 0.0000
vn -0.0697 -0.9707 -0.2299
vn 0.0000 1.0000 -0.0000
vn -0.0235 -0.9707 -0.2391
vn 0.1926 0.9685 -0.1581
vn 0.1481 0.9815 -0.1215
vn 0.1215 0.9815 -0.1481
vn 0.0903 0.9815 -0.1689
vn 0.0556 0.9815 -0.1833
vn 0.0188 0.9815 -0.1906
vn -0.0188 0.9815 -0.1906
vn -0.0556 0.9815 -0.1833
vn -0.0903 0.9815 -0.1689
vn -0.1215 0.9815 -0.1481
vn -0.1481 0.9815 -0.1215
vn 0.0556 0.9815 0.1833
vn 0.0188 0.9815 0.1906
vn 0.0903 0.9815 0.1689
vn 0.1215 0.9815 0.1481
vn 0.1481 0.9815 0.1215
vn 0.1689 0.9815 0.0903
vn 0.1833 0.9815 0.0556
vn 0.1906 0.9815 0.0188
vn 0.1906 0.9815 -0.0188
vn 0.1833 0.9815 -0.0556
vn 0.1689 0.9815 -0.0903
vn -0.0188 0.9815 0.1906
vn -0.0556 0.9815 0.1833
vn -0.0903 0.9815 0.1689
vn -0.1215 0.9815 0.1481
vn -0.1481 0.9815 0.1215
vn -0.1689 0.9815 0.0903
vn -0.1833 0.9815 0.0556
vn -0.1906 0.9815 0.0188
vn -0.1906 0.9815 -0.0188
vn -0.1833 0.9815 -0.0556
vn -0.1689 0.9815 -0.0903
vn 0.1298 0.9858 -0.1065
vn 0.1065 0.9858 -0.1298
vn 0.0791 0.9858 -0.1481
vn 0.0487 0.9858 -0.1607
vn 0.0165 0.9858 -0.1671
vn -0.0165 0.9858 -0.1671
vn -0.0487 0.9858 -0.1607
vn -0.0791 0.9858 -0.1481
vn -0.1065 0.9858 -0.1298
vn -0.1298 0.9858 -0.1065
vn 0.0487 0.9858 0.1607
vn 0.0165 0.9858 0.1671
vn 0.0791 0.9858 0.1481
vn 0.1065 0.9858 0.1298
vn 0.1298 0.9858 0.1065
vn 0.1481 0.9858 0.0791
vn 0.1607 0.9858 0.0487
vn 0.1671 0.9858 0.0165
vn 0.1671 0.9858 -0.0165
vn 0.1607 0.9858 -0.0487
vn 0.1481 0.9858 -0.0791
vn -0.0165 0.9858 0.1671
vn -0.0487 0.9858 0.1607
vn -0.0791 0.9858 0.1481
vn -0.1065 0.9858 0.1298
vn -0.1298 0.9858 0.1065
vn -0.1481 0.9858 0.0791
vn -0.1607 0.9858 0.0487
vn -0.1671 0.9858 0.0165
vn -0.1671 0.9858 -0.0165
vn -0.1607 0.9858 -0.0487
vn -0.1481 0.9858 -0.0791
usemtl None
s off
f 148//1 146//1 56//1 58//1
f 43//2 10//2 12//2 42//2
f 159//3 148//3 58//3 60//3
f 44//4 8//4 10//4 43//4
f 149//5 159//5 60//5 62//5
f 45//6 6//6 8//6 44//6
f 160//7 149//7 62//7 64//7
f 46//8 4//8 6//8 45//8
f 150//9 160//9 64//9 66//9
f 47//10 2//10 4//10 46//10
f 151//11 150//11 66//11 68//11
f 49//12 48//12 2//12 47//12
f 152//13 151//13 68//13 70//13
f 51//14 50//14 48//14 49//14
f 153//15 152//15 70//15 72//15
f 53//16 52//16 50//16 51//16
f 154//17 153//17 72//17 74//17
f 55//18 54//18 52//18 53//18
f 155//19 154//19 74//19 76//19
f 57//20 56//20 54//20 55//20
f 140//21 155//21 76//21 78//21
f 59//22 58//22 56//22 57//22
f 139//23 147//23 14//23 12//23
f 61//24 60//24 58//24 59//24
f 147//25 145//25 16//25 14//25
f 63//26 62//26 60//26 61//26
f 145//27 143//27 18//27 16//27
f 65//28 64//28 62//28 63//28
f 143//29 142//29 20//29 18//29
f 67//30 66//30 64//30 65//30
f 142//31 129//31 22//31 20//31
f 69//32 68//32 66//32 67//32
f 129//33 130//33 24//33 22//33
f 71//34 70//34 68//34 69//34
f 130//35 133//35 26//35 24//35
f 73//36 72//36 70//36 71//36
f 133//37 135//37 28//37 26//37
f 75//38 74//38 72//38 73//38
f 135//39 136//39 30//39 28//39
f 77//40 76//40 74//40 75//40
f 156//41 140//41 78//41 31//41
f 79//42 78//42 76//42 77//42
f 136//43 156//43 31//43 30//43
f 42//44 12//44 14//44 41//44
f 146//45 144//45 54//45 56//45
f 41//46 14//46 16//46 40//46
f 144//47 158//47 52//47 54//47
f 40//48 16//48 18//48 39//48
f 158//49 141//49 50//49 52//49
f 39//50 18//50 20//50 38//50
f 141//51 157//51 48//51 50//51
f 38//52 20//52 22//52 37//52
f 157//53 131//53 2//53 48//53
f 37//54 22//54 24//54 36//54
f 131//55 132//55 4//55 2//55
f 36//56 24//56 26//56 35//56
f 132//57 134//57 6//57 4//57
f 35//58 26//58 28//58 34//58
f 134//59 137//59 8//59 6//59
f 34//60 28//60 30//60 33//60
f 137//61 138//61 10//61 8//61
f 42//62 41//62 40//62 39//62 38//62 37//62 36//62 35//62 34//62 33//62 32//62 79//62 77//62 75//62 73//62 71//62 69//62 67//62 65//62 63//62 61//62 59//62 57//62 55//62 53//62 51//62 49//62 47//62 46//62 45//62 44//62 43//62
f 33//63 30//63 31//63 32//63
f 11//64 9//64 7//64 5//64 3//64 1//64 81//64 82//64 83//64 84//64 85//64 86//64 88//64 90//64 92//64 94//64 96//64 98//64 100//64 102//64 103//64 104//64 80//64 29//64 27//64 25//64 23//64 21//64 19//64 17//64 15//64 13//64
f 32//65 31//65 78//65 79//65
f 138//66 139//66 12//66 10//66
f 9//67 11//67 101//67 99//67
f 7//68 9//68 99//68 95//68
f 5//69 7//69 95//69 91//69
f 3//70 5//70 91//70 87//70
f 1//71 3//71 87//71 106//71
f 81//72 1//72 106//72 125//72
f 82//73 81//73 125//73 108//73
f 83//74 82//74 108//74 126//74
f 84//75 83//75 126//75 111//75
f 85//76 84//76 111//76 113//76
f 29//77 80//77 123//77 97//77
f 80//78 104//78 124//78 123//78
f 27//79 29//79 97//79 93//79
f 25//80 27//80 93//80 89//80
f 23//81 25//81 89//81 105//81
f 21//82 23//82 105//82 107//82
f 19//83 21//83 107//83 109//83
f 17//84 19//84 109//84 110//84
f 15//85 17//85 110//85 112//85
f 13//86 15//86 112//86 114//86
f 11//87 13//87 114//87 101//87
f 104//88 103//88 122//88 124//88
f 103//89 102//89 121//89 122//89
f 102//90 100//90 120//90 121//90
f 100//91 98//91 119//91 120//91
f 98//92 96//92 118//92 119//92
f 96//93 94//93 117//93 118//93
f 94//94 92//94 128//94 117//94
f 92//95 90//95 116//95 128//95
f 90//96 88//96 127//96 116//96
f 88//97 86//97 115//97 127//97
f 86//98 85//98 113//98 115//98
f 99//99 101//99 139//99 138//99
f 95//100 99//100 138//100 137//100
f 91//101 95//101 137//101 134//101
f 87//102 91//102 134//102 132//102
f 106//103 87//103 132//103 131//103
f 125//104 106//104 131//104 157//104
f 108//105 125//105 157//105 141//105
f 126//106 108//106 141//106 158//106
f 111//107 126//107 158//107 144//107
f 113//108 111//108 144//108 146//108
f 97//109 123//109 156//109 136//109
f 123//110 124//110 140//110 156//110
f 93//111 97//111 136//111 135//111
f 89//112 93//112 135//112 133//112
f 105//113 89//113 133//113 130//113
f 107//114 105//114 130//114 129//114
f 109//115 107//115 129//115 142//115
f 110//116 109//116 142//116 143//116
f 112//117 110//117 143//117 145//117
f 114//118 112//118 145//118 147//118
f 101//119 114//119 147//119 139//119
f 124//120 122//120 155//120 140//120
f 122//121 121//121 154//121 155//121
f 121//122 120//122 153//122 154//122
f 120//123 119//123 152//123 153//123
f 119//124 118//124 151//124 152//124
f 118//125 117//125 150//125 151//125
f 117//126 128//126 160//126 150//126
f 128//127 116//127 149//127 160//127
f 116//128 127//128 159//128 149//128
f 127//129 115//129 148//129 159//129
f 115//130 113//130 146//130 148//130
