# Blender v2.79 (sub 0) OBJ File: 'Lamp.blend'
# www.blender.org
mtllib Lamp.mtl
o Cylinder
v -2.375935 -2.233506 -0.901050
v -2.375935 0.726863 -0.901050
v -2.253542 -2.233506 -0.888995
v -2.253542 0.726863 -0.888995
v -2.135853 -2.233506 -0.853295
v -2.135853 0.726863 -0.853295
v -2.027390 -2.233506 -0.795320
v -2.027390 0.726863 -0.795320
v -1.932322 -2.233506 -0.717300
v -1.932322 0.726863 -0.717300
v -1.854301 -2.233506 -0.622231
v -1.854301 0.726863 -0.622231
v -1.796327 -2.233506 -0.513768
v -1.796327 0.726863 -0.513768
v -1.760626 -2.233506 -0.396079
v -1.760626 0.726863 -0.396079
v -1.748572 -2.233506 -0.273687
v -1.748572 0.726863 -0.273687
v -1.760626 -2.233506 -0.151295
v -1.760626 0.726863 -0.151295
v -1.796327 -2.233506 -0.033606
v -1.796327 0.726863 -0.033606
v -1.854301 -2.233506 0.074857
v -1.854301 0.726863 0.074857
v -1.932322 -2.233506 0.169926
v -1.932322 0.726863 0.169926
v -2.027390 -2.233506 0.247946
v -2.027390 0.726863 0.247946
v -2.135853 -2.233506 0.305921
v -2.135853 0.726863 0.305921
v -2.253542 -2.233506 0.341621
v -2.253542 0.726863 0.341621
v -2.375935 -2.233506 0.353676
v -2.375935 0.726863 0.353676
v -2.498327 -2.233506 0.341621
v -2.498327 0.726863 0.341621
v -2.616016 -2.233506 0.305921
v -2.616016 0.726863 0.305921
v -2.724479 -2.233506 0.247946
v -2.724479 0.726863 0.247946
v -2.819547 -2.233506 0.169925
v -2.819547 0.726863 0.169925
v -2.897568 -2.233506 0.074857
v -2.897568 0.726863 0.074857
v -2.955543 -2.233506 -0.033606
v -2.955543 0.726863 -0.033606
v -2.991243 -2.233506 -0.151295
v -2.991243 0.726863 -0.151295
v -3.003298 -2.233506 -0.273688
v -3.003298 0.726863 -0.273688
v -2.991243 -2.233506 -0.396080
v -2.991243 0.726863 -0.396080
v -2.955542 -2.233506 -0.513769
v -2.955542 0.726863 -0.513769
v -2.897567 -2.233506 -0.622232
v -2.897567 0.726863 -0.622232
v -2.819547 -2.233506 -0.717300
v -2.819547 0.726863 -0.717300
v -2.724478 -2.233506 -0.795321
v -2.724478 0.726863 -0.795321
v -2.616015 -2.233506 -0.853295
v -2.616015 0.726863 -0.853295
v -2.498326 -2.233506 -0.888996
v -2.498326 0.726863 -0.888996
v -2.375935 -2.797099 -2.453789
v -1.950618 -2.797099 -2.411899
v -1.541645 -2.797099 -2.287839
v -1.164734 -2.797099 -2.086376
v -0.834369 -2.797099 -1.815252
v -0.563245 -2.797099 -1.484887
v -0.361782 -2.797099 -1.107976
v -0.237722 -2.797099 -0.699004
v -0.195832 -2.797099 -0.273687
v -0.237722 -2.797099 0.151630
v -0.361782 -2.797099 0.560602
v -0.563245 -2.797099 0.937514
v -0.834369 -2.797099 1.267879
v -1.164734 -2.797099 1.539003
v -1.541646 -2.797099 1.740466
v -1.950618 -2.797099 1.864527
v -2.375936 -2.797099 1.906416
v -2.801253 -2.797099 1.864526
v -3.210225 -2.797099 1.740466
v -3.587136 -2.797099 1.539002
v -3.917501 -2.797099 1.267878
v -4.188625 -2.797099 0.937513
v -4.390088 -2.797099 0.560601
v -4.514148 -2.797099 0.151629
v -4.556038 -2.797099 -0.273689
v -4.514147 -2.797099 -0.699006
v -4.390086 -2.797099 -1.107978
v -4.188622 -2.797099 -1.484889
v -3.917499 -2.797099 -1.815254
v -3.587133 -2.797099 -2.086378
v -3.210221 -2.797099 -2.287840
v -2.801249 -2.797099 -2.411900
v -2.375935 -3.033519 -2.453789
v -1.950618 -3.033519 -2.411899
v -1.541645 -3.033519 -2.287839
v -1.164734 -3.033519 -2.086376
v -0.834369 -3.033519 -1.815252
v -0.563245 -3.033519 -1.484887
v -0.361782 -3.033519 -1.107976
v -0.237722 -3.033519 -0.699004
v -0.195832 -3.033519 -0.273687
v -0.237722 -3.033519 0.151630
v -0.361782 -3.033519 0.560602
v -0.563245 -3.033519 0.937514
v -0.834369 -3.033519 1.267879
v -1.164734 -3.033519 1.539003
v -1.541646 -3.033519 1.740466
v -1.950618 -3.033519 1.864527
v -2.375936 -3.033519 1.906416
v -2.801253 -3.033519 1.864526
v -3.210225 -3.033519 1.740466
v -3.587136 -3.033519 1.539002
v -3.917501 -3.033519 1.267878
v -4.188625 -3.033519 0.937513
v -4.390088 -3.033519 0.560601
v -4.514148 -3.033519 0.151629
v -4.556038 -3.033519 -0.273689
v -4.514147 -3.033519 -0.699006
v -4.390086 -3.033519 -1.107978
v -4.188622 -3.033519 -1.484889
v -3.917499 -3.033519 -1.815254
v -3.587133 -3.033519 -2.086378
v -3.210221 -3.033519 -2.287840
v -2.801249 -3.033519 -2.411900
v -2.269507 2.605272 -0.808731
v -2.375934 2.605272 -0.819213
v -2.167171 2.605272 -0.777687
v -2.072856 2.605272 -0.727275
v -1.990189 2.605272 -0.659432
v -1.922346 2.605272 -0.576765
v -1.871934 2.605272 -0.482451
v -1.840890 2.605272 -0.380114
v -1.830408 2.605272 -0.273687
v -1.840890 2.605272 -0.167260
v -1.871934 2.605272 -0.064923
v -1.922346 2.605272 0.029391
v -1.990189 2.605272 0.112058
v -2.072856 2.605272 0.179901
v -2.167171 2.605272 0.230313
v -2.269508 2.605272 0.261357
v -2.375935 2.605272 0.271839
v -2.482361 2.605272 0.261357
v -2.584698 2.605272 0.230313
v -2.679013 2.605272 0.179901
v -2.761680 2.605272 0.112058
v -2.829523 2.605272 0.029391
v -2.879935 2.605272 -0.064924
v -2.910978 2.605272 -0.167261
v -2.921460 2.605272 -0.273688
v -2.910978 2.605272 -0.380114
v -2.879935 2.605272 -0.482451
v -2.829522 2.605272 -0.576766
v -2.761679 2.605272 -0.659433
v -2.679012 2.605272 -0.727276
v -2.584697 2.605272 -0.777688
v -2.482360 2.605272 -0.808731
v -2.269508 4.114235 -0.808731
v -2.375935 4.114235 -0.819213
v -2.167171 4.114235 -0.777687
v -2.072857 4.114235 -0.727275
v -1.990190 4.114235 -0.659432
v -1.922347 4.114235 -0.576765
v -1.871935 4.114235 -0.482451
v -1.840891 4.114235 -0.380114
v -1.830409 4.114235 -0.273687
v -1.840891 4.114235 -0.167260
v -1.871935 4.114235 -0.064923
v -1.922347 4.114235 0.029391
v -1.990190 4.114235 0.112058
v -2.072857 4.114235 0.179901
v -2.167171 4.114235 0.230313
v -2.269508 4.114235 0.261357
v -2.375935 4.114235 0.271839
v -2.482362 4.114235 0.261357
v -2.584699 4.114235 0.230313
v -2.679013 4.114235 0.179901
v -2.761681 4.114235 0.112058
v -2.829524 4.114235 0.029391
v -2.879936 4.114235 -0.064924
v -2.910979 4.114235 -0.167261
v -2.921461 4.114235 -0.273688
v -2.910979 4.114235 -0.380114
v -2.879935 4.114235 -0.482451
v -2.829523 4.114235 -0.576766
v -2.761680 4.114235 -0.659433
v -2.679013 4.114235 -0.727276
v -2.584698 4.114235 -0.777688
v -2.482361 4.114235 -0.808731
v -2.157633 4.234784 -1.371166
v -2.375935 4.234784 -1.392667
v -1.947720 4.234784 -1.307489
v -1.754263 4.234784 -1.204084
v -1.584697 4.234784 -1.064925
v -1.445538 4.234784 -0.895359
v -1.342133 4.234784 -0.701902
v -1.278456 4.234784 -0.491989
v -1.256955 4.234784 -0.273687
v -1.278456 4.234784 -0.055385
v -1.342133 4.234784 0.154528
v -1.445538 4.234784 0.347985
v -1.584697 4.234784 0.517551
v -1.754263 4.234784 0.656711
v -1.947720 4.234784 0.760116
v -2.157633 4.234784 0.823792
v -2.375936 4.234784 0.845293
v -2.594238 4.234784 0.823792
v -2.804151 4.234784 0.760115
v -2.997607 4.234784 0.656710
v -3.167174 4.234784 0.517551
v -3.306333 4.234784 0.347984
v -3.409738 4.234784 0.154527
v -3.473414 4.234784 -0.055386
v -3.494915 4.234784 -0.273688
v -3.473413 4.234784 -0.491990
v -3.409737 4.234784 -0.701903
v -3.306332 4.234784 -0.895360
v -3.167172 4.234784 -1.064926
v -2.997606 4.234784 -1.204085
v -2.804149 4.234784 -1.307490
v -2.594235 4.234784 -1.371166
v -1.810191 1.431520 -3.117867
v -2.375933 1.431520 -3.173588
v -1.266189 1.431520 -2.952846
v -0.764834 1.431520 -2.684866
v -0.325393 1.431520 -2.324226
v 0.035247 1.431520 -1.884785
v 0.303226 1.431520 -1.383431
v 0.468247 1.431520 -0.839429
v 0.523968 1.431520 -0.273686
v 0.468248 1.431520 0.292056
v 0.303227 1.431520 0.836058
v 0.035247 1.431520 1.337413
v -0.325393 1.431520 1.776854
v -0.764834 1.431520 2.137494
v -1.266189 1.431520 2.405474
v -1.810191 1.431520 2.570495
v -2.375934 1.431520 2.626215
v -2.941677 1.431520 2.570494
v -3.485679 1.431520 2.405473
v -3.987034 1.431520 2.137493
v -4.426475 1.431520 1.776853
v -4.787115 1.431520 1.337411
v -5.055094 1.431520 0.836056
v -5.220115 1.431520 0.292054
v -5.275835 1.431520 -0.273689
v -5.220114 1.431520 -0.839432
v -5.055092 1.431520 -1.383434
v -4.787112 1.431520 -1.884788
v -4.426471 1.431520 -2.324229
v -3.987029 1.431520 -2.684869
v -3.485674 1.431520 -2.952848
v -2.941672 1.431520 -3.117868
v -1.896439 1.431520 -2.684268
v -2.375933 1.431520 -2.731494
v -1.435371 1.431520 -2.544405
v -1.010448 1.431520 -2.317279
v -0.638001 1.431520 -2.011619
v -0.332341 1.431520 -1.639171
v -0.105215 1.431520 -1.214249
v 0.034648 1.431520 -0.753181
v 0.081874 1.431520 -0.273687
v 0.034648 1.431520 0.205808
v -0.105215 1.431520 0.666876
v -0.332341 1.431520 1.091798
v -0.638001 1.431520 1.464246
v -1.010449 1.431520 1.769907
v -1.435371 1.431520 1.997032
v -1.896439 1.431520 2.136896
v -2.375934 1.431520 2.184121
v -2.855429 1.431520 2.136895
v -3.316497 1.431520 1.997031
v -3.741419 1.431520 1.769905
v -4.113867 1.431520 1.464245
v -4.419527 1.431520 1.091797
v -4.646652 1.431520 0.666874
v -4.786515 1.431520 0.205806
v -4.833741 1.431520 -0.273689
v -4.786514 1.431520 -0.753183
v -4.646651 1.431520 -1.214251
v -4.419524 1.431520 -1.639174
v -4.113864 1.431520 -2.011621
v -3.741416 1.431520 -2.317281
v -3.316493 1.431520 -2.544406
v -2.855424 1.431520 -2.684268
v -2.208032 3.613793 -1.117783
v -2.375933 3.613793 -1.134320
v -2.046583 3.613793 -1.068808
v -1.897791 3.613793 -0.989277
v -1.767374 3.613793 -0.882246
v -1.660343 3.613793 -0.751829
v -1.580812 3.613793 -0.603037
v -1.531837 3.613793 -0.441588
v -1.515300 3.613793 -0.273687
v -1.531837 3.613793 -0.105786
v -1.580812 3.613793 0.055663
v -1.660343 3.613793 0.204455
v -1.767374 3.613793 0.334873
v -1.897791 3.613793 0.441904
v -2.046583 3.613793 0.521435
v -2.208032 3.613793 0.570410
v -2.375933 3.613793 0.586946
v -2.543835 3.613793 0.570409
v -2.705284 3.613793 0.521434
v -2.854076 3.613793 0.441903
v -2.984493 3.613793 0.334872
v -3.091524 3.613793 0.204455
v -3.171055 3.613793 0.055663
v -3.220030 3.613793 -0.105786
v -3.236566 3.613793 -0.273688
v -3.220029 3.613793 -0.441589
v -3.171054 3.613793 -0.603038
v -3.091523 3.613793 -0.751830
v -2.984492 3.613793 -0.882247
v -2.854074 3.613793 -0.989278
v -2.705282 3.613793 -1.068809
v -2.543833 3.613793 -1.117783
vn 0.0980 0.0000 -0.9952
vn 0.2903 0.0000 -0.9569
vn 0.4714 0.0000 -0.8819
vn 0.6344 0.0000 -0.7730
vn 0.7730 0.0000 -0.6344
vn 0.8819 0.0000 -0.4714
vn 0.9569 0.0000 -0.2903
vn 0.9952 0.0000 -0.0980
vn 0.9952 0.0000 0.0980
vn 0.9569 0.0000 0.2903
vn 0.8819 0.0000 0.4714
vn 0.7730 0.0000 0.6344
vn 0.6344 0.0000 0.7730
vn 0.4714 0.0000 0.8819
vn 0.2903 0.0000 0.9569
vn 0.0980 0.0000 0.9952
vn -0.0980 0.0000 0.9952
vn -0.2903 0.0000 0.9569
vn -0.4714 0.0000 0.8819
vn -0.6344 0.0000 0.7730
vn -0.7730 0.0000 0.6344
vn -0.8819 0.0000 0.4714
vn -0.9569 0.0000 0.2903
vn -0.9952 0.0000 0.0980
vn -0.9952 0.0000 -0.0980
vn -0.9569 0.0000 -0.2903
vn -0.8819 0.0000 -0.4714
vn -0.7730 0.0000 -0.6344
vn -0.6344 0.0000 -0.7730
vn -0.4714 0.0000 -0.8819
vn 0.7723 0.0433 0.6338
vn -0.2903 0.0000 -0.9569
vn -0.0980 0.0000 -0.9952
vn 0.3410 0.9395 -0.0336
vn -0.0336 0.9395 0.3410
vn -0.3279 0.9395 -0.0995
vn 0.2174 0.9395 -0.2649
vn 0.2174 0.9395 0.2649
vn -0.3022 0.9395 0.1615
vn -0.0995 0.9395 -0.3279
vn 0.3410 0.9395 0.0336
vn -0.0995 0.9395 0.3279
vn -0.3022 0.9395 -0.1615
vn 0.2649 0.9395 -0.2174
vn 0.1615 0.9395 0.3022
vn -0.3279 0.9395 0.0995
vn 0.0336 0.9395 -0.3410
vn -0.0336 0.9395 -0.3410
vn 0.3279 0.9395 0.0995
vn -0.1615 0.9395 0.3022
vn -0.2649 0.9395 -0.2174
vn 0.3022 0.9395 -0.1615
vn 0.0995 0.9395 0.3279
vn -0.3410 0.9395 0.0336
vn 0.0995 0.9395 -0.3279
vn 0.3022 0.9395 0.1615
vn -0.2174 0.9395 0.2649
vn -0.2174 0.9395 -0.2649
vn 0.3279 0.9395 -0.0995
vn 0.0336 0.9395 0.3410
vn -0.3410 0.9395 -0.0336
vn 0.1615 0.9395 -0.3022
vn 0.2649 0.9395 0.2174
vn -0.2649 0.9395 0.2174
vn -0.1615 0.9395 -0.3022
vn 0.0000 -1.0000 -0.0000
vn -0.7723 0.0433 0.6338
vn -0.4710 0.0433 -0.8811
vn 0.9943 0.0433 -0.0979
vn -0.0979 0.0433 0.9943
vn -0.9560 0.0433 -0.2900
vn 0.6338 0.0433 -0.7723
vn 0.6338 0.0433 0.7723
vn -0.8811 0.0433 0.4710
vn -0.2900 0.0433 -0.9560
vn 0.9943 0.0433 0.0979
vn -0.2900 0.0433 0.9560
vn -0.8811 0.0433 -0.4710
vn 0.7723 0.0433 -0.6338
vn 0.4710 0.0433 0.8811
vn -0.9560 0.0433 0.2900
vn 0.0979 0.0433 -0.9943
vn -0.0979 0.0433 -0.9943
vn 0.9560 0.0433 0.2900
vn -0.4710 0.0433 0.8811
vn -0.7723 0.0433 -0.6338
vn 0.8811 0.0433 -0.4710
vn 0.2900 0.0433 0.9560
vn -0.9943 0.0433 0.0979
vn 0.2900 0.0433 -0.9560
vn 0.8811 0.0433 0.4710
vn -0.6338 0.0433 0.7723
vn -0.6338 0.0433 -0.7723
vn 0.9560 0.0433 -0.2900
vn 0.0979 0.0433 0.9943
vn -0.9943 0.0433 -0.0979
vn 0.4710 0.0433 -0.8811
vn 0.0203 -0.9784 0.2057
vn 0.3984 -0.5344 -0.7454
vn 0.0974 -0.9784 -0.1823
vn -0.0974 -0.9784 -0.1823
vn -0.0203 -0.9784 0.2057
vn 0.1311 -0.9784 -0.1598
vn -0.0600 -0.9784 -0.1978
vn -0.0600 -0.9784 0.1978
vn 0.1598 -0.9784 -0.1311
vn -0.0203 -0.9784 -0.2057
vn -0.0974 -0.9784 0.1823
vn 0.1823 -0.9784 -0.0974
vn -0.1311 -0.9784 0.1598
vn 0.1978 -0.9784 -0.0600
vn -0.1598 -0.9784 0.1311
vn 0.2057 -0.9784 -0.0203
vn -0.1823 -0.9784 0.0974
vn 0.2057 -0.9784 0.0203
vn -0.1978 -0.9784 0.0600
vn 0.1978 -0.9784 0.0600
vn -0.2057 -0.9784 0.0203
vn 0.1823 -0.9784 0.0974
vn -0.2057 -0.9784 -0.0203
vn 0.1598 -0.9784 0.1311
vn -0.1978 -0.9784 -0.0600
vn 0.1311 -0.9784 0.1598
vn -0.1823 -0.9784 -0.0974
vn 0.0974 -0.9784 0.1823
vn 0.0203 -0.9784 -0.2057
vn -0.1598 -0.9784 -0.1311
vn 0.0600 -0.9784 0.1978
vn 0.0600 -0.9784 -0.1978
vn -0.1311 -0.9784 -0.1598
vn -0.7454 -0.5344 0.3984
vn 0.5362 -0.5344 -0.6534
vn -0.8088 -0.5344 0.2454
vn 0.6534 -0.5344 -0.5362
vn -0.8412 -0.5344 0.0828
vn 0.7454 -0.5344 -0.3984
vn -0.8412 -0.5344 -0.0828
vn 0.8088 -0.5344 -0.2454
vn -0.8088 -0.5344 -0.2454
vn 0.8412 -0.5344 -0.0828
vn -0.7454 -0.5344 -0.3984
vn 0.8412 -0.5344 0.0828
vn -0.6534 -0.5344 -0.5362
vn 0.8088 -0.5344 0.2454
vn -0.5362 -0.5344 -0.6534
vn 0.7454 -0.5344 0.3984
vn -0.3984 -0.5344 -0.7454
vn -0.0828 -0.5344 0.8412
vn 0.6534 -0.5344 0.5362
vn -0.2454 -0.5344 -0.8088
vn -0.2454 -0.5344 0.8088
vn 0.5362 -0.5344 0.6534
vn -0.0828 -0.5344 -0.8412
vn -0.3984 -0.5344 0.7454
vn 0.3984 -0.5344 0.7454
vn 0.0828 -0.5344 -0.8412
vn -0.5362 -0.5344 0.6534
vn 0.2454 -0.5344 0.8088
vn 0.2454 -0.5344 -0.8088
vn -0.6534 -0.5344 0.5362
vn 0.0828 -0.5344 0.8412
vn 0.8044 -0.5887 0.0792
vn -0.6248 -0.5887 -0.5128
vn 0.7735 -0.5887 0.2346
vn -0.5128 -0.5887 -0.6248
vn 0.7129 -0.5887 0.3810
vn -0.3810 -0.5887 -0.7129
vn -0.0792 -0.5887 0.8044
vn 0.6248 -0.5887 0.5128
vn -0.2346 -0.5887 -0.7735
vn -0.2346 -0.5887 0.7735
vn 0.5128 -0.5887 0.6248
vn -0.0792 -0.5887 -0.8044
vn -0.3810 -0.5887 0.7129
vn 0.3810 -0.5887 0.7129
vn 0.0792 -0.5887 -0.8044
vn -0.5128 -0.5887 0.6248
vn 0.2346 -0.5887 0.7735
vn 0.2346 -0.5887 -0.7735
vn -0.6248 -0.5887 0.5128
vn 0.0792 -0.5887 0.8044
vn 0.3810 -0.5887 -0.7129
vn -0.7129 -0.5887 0.3810
vn 0.5128 -0.5887 -0.6248
vn -0.7735 -0.5887 0.2346
vn 0.6248 -0.5887 -0.5128
vn -0.8044 -0.5887 0.0792
vn 0.7129 -0.5887 -0.3810
vn -0.8044 -0.5887 -0.0792
vn 0.7735 -0.5887 -0.2346
vn -0.7735 -0.5887 -0.2346
vn 0.8044 -0.5887 -0.0792
vn -0.7129 -0.5887 -0.3810
usemtl None
s off
f 1//1 2//1 4//1 3//1
f 3//2 4//2 6//2 5//2
f 5//3 6//3 8//3 7//3
f 7//4 8//4 10//4 9//4
f 9//5 10//5 12//5 11//5
f 11//6 12//6 14//6 13//6
f 13//7 14//7 16//7 15//7
f 15//8 16//8 18//8 17//8
f 17//9 18//9 20//9 19//9
f 19//10 20//10 22//10 21//10
f 21//11 22//11 24//11 23//11
f 23//12 24//12 26//12 25//12
f 25//13 26//13 28//13 27//13
f 27//14 28//14 30//14 29//14
f 29//15 30//15 32//15 31//15
f 31//16 32//16 34//16 33//16
f 33//17 34//17 36//17 35//17
f 35//18 36//18 38//18 37//18
f 37//19 38//19 40//19 39//19
f 39//20 40//20 42//20 41//20
f 41//21 42//21 44//21 43//21
f 43//22 44//22 46//22 45//22
f 45//23 46//23 48//23 47//23
f 47//24 48//24 50//24 49//24
f 49//25 50//25 52//25 51//25
f 51//26 52//26 54//26 53//26
f 53//27 54//27 56//27 55//27
f 55//28 56//28 58//28 57//28
f 57//29 58//29 60//29 59//29
f 59//30 60//30 62//30 61//30
f 26//31 24//31 140//31 141//31
f 61//32 62//32 64//32 63//32
f 63//33 64//33 2//33 1//33
f 15//34 17//34 73//34 72//34
f 71//7 72//7 104//7 103//7
f 33//35 35//35 82//35 81//35
f 51//36 53//36 91//36 90//36
f 7//37 9//37 69//37 68//37
f 25//38 27//38 78//38 77//38
f 43//39 45//39 87//39 86//39
f 61//40 63//40 96//40 95//40
f 17//41 19//41 74//41 73//41
f 35//42 37//42 83//42 82//42
f 53//43 55//43 92//43 91//43
f 9//44 11//44 70//44 69//44
f 27//45 29//45 79//45 78//45
f 45//46 47//46 88//46 87//46
f 1//47 3//47 66//47 65//47
f 63//48 1//48 65//48 96//48
f 19//49 21//49 75//49 74//49
f 37//50 39//50 84//50 83//50
f 55//51 57//51 93//51 92//51
f 11//52 13//52 71//52 70//52
f 29//53 31//53 80//53 79//53
f 47//54 49//54 89//54 88//54
f 3//55 5//55 67//55 66//55
f 21//56 23//56 76//56 75//56
f 39//57 41//57 85//57 84//57
f 57//58 59//58 94//58 93//58
f 13//59 15//59 72//59 71//59
f 31//60 33//60 81//60 80//60
f 49//61 51//61 90//61 89//61
f 5//62 7//62 68//62 67//62
f 23//63 25//63 77//63 76//63
f 41//64 43//64 86//64 85//64
f 59//65 61//65 95//65 94//65
f 97//66 98//66 99//66 100//66 101//66 102//66 103//66 104//66 105//66 106//66 107//66 108//66 109//66 110//66 111//66 112//66 113//66 114//66 115//66 116//66 117//66 118//66 119//66 120//66 121//66 122//66 123//66 124//66 125//66 126//66 127//66 128//66
f 85//21 86//21 118//21 117//21
f 72//8 73//8 105//8 104//8
f 86//22 87//22 119//22 118//22
f 73//9 74//9 106//9 105//9
f 87//23 88//23 120//23 119//23
f 74//10 75//10 107//10 106//10
f 88//24 89//24 121//24 120//24
f 75//11 76//11 108//11 107//11
f 89//25 90//25 122//25 121//25
f 76//12 77//12 109//12 108//12
f 90//26 91//26 123//26 122//26
f 77//13 78//13 110//13 109//13
f 91//27 92//27 124//27 123//27
f 78//14 79//14 111//14 110//14
f 65//1 66//1 98//1 97//1
f 92//28 93//28 125//28 124//28
f 79//15 80//15 112//15 111//15
f 66//2 67//2 99//2 98//2
f 93//29 94//29 126//29 125//29
f 80//16 81//16 113//16 112//16
f 67//3 68//3 100//3 99//3
f 94//30 95//30 127//30 126//30
f 81//17 82//17 114//17 113//17
f 68//4 69//4 101//4 100//4
f 95//32 96//32 128//32 127//32
f 82//18 83//18 115//18 114//18
f 69//5 70//5 102//5 101//5
f 96//33 65//33 97//33 128//33
f 83//19 84//19 116//19 115//19
f 70//6 71//6 103//6 102//6
f 84//20 85//20 117//20 116//20
f 142//13 141//13 173//13 174//13
f 44//67 42//67 149//67 150//67
f 62//68 60//68 158//68 159//68
f 18//69 16//69 136//69 137//69
f 36//70 34//70 145//70 146//70
f 54//71 52//71 154//71 155//71
f 10//72 8//72 132//72 133//72
f 28//73 26//73 141//73 142//73
f 46//74 44//74 150//74 151//74
f 64//75 62//75 159//75 160//75
f 20//76 18//76 137//76 138//76
f 38//77 36//77 146//77 147//77
f 56//78 54//78 155//78 156//78
f 12//79 10//79 133//79 134//79
f 30//80 28//80 142//80 143//80
f 48//81 46//81 151//81 152//81
f 4//82 2//82 130//82 129//82
f 2//83 64//83 160//83 130//83
f 22//84 20//84 138//84 139//84
f 40//85 38//85 147//85 148//85
f 58//86 56//86 156//86 157//86
f 14//87 12//87 134//87 135//87
f 32//88 30//88 143//88 144//88
f 50//89 48//89 152//89 153//89
f 6//90 4//90 129//90 131//90
f 24//91 22//91 139//91 140//91
f 42//92 40//92 148//92 149//92
f 60//93 58//93 157//93 158//93
f 16//94 14//94 135//94 136//94
f 34//95 32//95 144//95 145//95
f 52//96 50//96 153//96 154//96
f 8//97 6//97 131//97 132//97
f 177//98 176//98 208//98 209//98
f 156//27 155//27 187//27 188//27
f 143//14 142//14 174//14 175//14
f 129//1 130//1 162//1 161//1
f 157//28 156//28 188//28 189//28
f 144//15 143//15 175//15 176//15
f 131//2 129//2 161//2 163//2
f 158//29 157//29 189//29 190//29
f 145//16 144//16 176//16 177//16
f 132//3 131//3 163//3 164//3
f 159//30 158//30 190//30 191//30
f 146//17 145//17 177//17 178//17
f 133//4 132//4 164//4 165//4
f 160//32 159//32 191//32 192//32
f 147//18 146//18 178//18 179//18
f 134//5 133//5 165//5 166//5
f 130//33 160//33 192//33 162//33
f 148//19 147//19 179//19 180//19
f 135//6 134//6 166//6 167//6
f 149//20 148//20 180//20 181//20
f 136//7 135//7 167//7 168//7
f 150//21 149//21 181//21 182//21
f 137//8 136//8 168//8 169//8
f 151//22 150//22 182//22 183//22
f 138//9 137//9 169//9 170//9
f 152//23 151//23 183//23 184//23
f 139//10 138//10 170//10 171//10
f 153//24 152//24 184//24 185//24
f 140//11 139//11 171//11 172//11
f 154//25 153//25 185//25 186//25
f 141//12 140//12 172//12 173//12
f 155//26 154//26 186//26 187//26
f 212//99 211//99 243//99 244//99
f 164//100 163//100 195//100 196//100
f 191//101 190//101 222//101 223//101
f 178//102 177//102 209//102 210//102
f 165//103 164//103 196//103 197//103
f 192//104 191//104 223//104 224//104
f 179//105 178//105 210//105 211//105
f 166//106 165//106 197//106 198//106
f 162//107 192//107 224//107 194//107
f 180//108 179//108 211//108 212//108
f 167//109 166//109 198//109 199//109
f 181//110 180//110 212//110 213//110
f 168//111 167//111 199//111 200//111
f 182//112 181//112 213//112 214//112
f 169//113 168//113 200//113 201//113
f 183//114 182//114 214//114 215//114
f 170//115 169//115 201//115 202//115
f 184//116 183//116 215//116 216//116
f 171//117 170//117 202//117 203//117
f 185//118 184//118 216//118 217//118
f 172//119 171//119 203//119 204//119
f 186//120 185//120 217//120 218//120
f 173//121 172//121 204//121 205//121
f 187//122 186//122 218//122 219//122
f 174//123 173//123 205//123 206//123
f 188//124 187//124 219//124 220//124
f 175//125 174//125 206//125 207//125
f 161//126 162//126 194//126 193//126
f 189//127 188//127 220//127 221//127
f 176//128 175//128 207//128 208//128
f 163//129 161//129 193//129 195//129
f 190//130 189//130 221//130 222//130
f 247//66 279//66 278//66 246//66
f 199//131 198//131 230//131 231//131
f 213//132 212//132 244//132 245//132
f 200//133 199//133 231//133 232//133
f 214//134 213//134 245//134 246//134
f 201//135 200//135 232//135 233//135
f 215//136 214//136 246//136 247//136
f 202//137 201//137 233//137 234//137
f 216//138 215//138 247//138 248//138
f 203//139 202//139 234//139 235//139
f 217//140 216//140 248//140 249//140
f 204//141 203//141 235//141 236//141
f 218//142 217//142 249//142 250//142
f 205//143 204//143 236//143 237//143
f 219//144 218//144 250//144 251//144
f 206//145 205//145 237//145 238//145
f 220//146 219//146 251//146 252//146
f 207//147 206//147 238//147 239//147
f 193//148 194//148 226//148 225//148
f 221//149 220//149 252//149 253//149
f 208//150 207//150 239//150 240//150
f 195//151 193//151 225//151 227//151
f 222//152 221//152 253//152 254//152
f 209//153 208//153 240//153 241//153
f 196//154 195//154 227//154 228//154
f 223//155 222//155 254//155 255//155
f 210//156 209//156 241//156 242//156
f 197//157 196//157 228//157 229//157
f 224//158 223//158 255//158 256//158
f 211//159 210//159 242//159 243//159
f 198//160 197//160 229//160 230//160
f 194//161 224//161 256//161 226//161
f 234//66 266//66 265//66 233//66
f 248//66 280//66 279//66 247//66
f 235//66 267//66 266//66 234//66
f 249//66 281//66 280//66 248//66
f 236//66 268//66 267//66 235//66
f 250//66 282//66 281//66 249//66
f 237//66 269//66 268//66 236//66
f 251//66 283//66 282//66 250//66
f 238//66 270//66 269//66 237//66
f 252//66 284//66 283//66 251//66
f 239//66 271//66 270//66 238//66
f 225//66 257//66 258//66 226//66
f 253//66 285//66 284//66 252//66
f 240//66 272//66 271//66 239//66
f 227//66 259//66 257//66 225//66
f 254//66 286//66 285//66 253//66
f 241//66 273//66 272//66 240//66
f 228//66 260//66 259//66 227//66
f 255//66 287//66 286//66 254//66
f 242//66 274//66 273//66 241//66
f 229//66 261//66 260//66 228//66
f 256//66 288//66 287//66 255//66
f 243//66 275//66 274//66 242//66
f 230//66 262//66 261//66 229//66
f 226//66 258//66 288//66 256//66
f 244//66 276//66 275//66 243//66
f 231//66 263//66 262//66 230//66
f 245//66 277//66 276//66 244//66
f 232//66 264//66 263//66 231//66
f 246//66 278//66 277//66 245//66
f 233//66 265//66 264//66 232//66
f 282//162 314//162 313//162 281//162
f 269//163 301//163 300//163 268//163
f 283//164 315//164 314//164 282//164
f 270//165 302//165 301//165 269//165
f 284//166 316//166 315//166 283//166
f 271//167 303//167 302//167 270//167
f 257//168 289//168 290//168 258//168
f 285//169 317//169 316//169 284//169
f 272//170 304//170 303//170 271//170
f 259//171 291//171 289//171 257//171
f 286//172 318//172 317//172 285//172
f 273//173 305//173 304//173 272//173
f 260//174 292//174 291//174 259//174
f 287//175 319//175 318//175 286//175
f 274//176 306//176 305//176 273//176
f 261//177 293//177 292//177 260//177
f 288//178 320//178 319//178 287//178
f 275//179 307//179 306//179 274//179
f 262//180 294//180 293//180 261//180
f 258//181 290//181 320//181 288//181
f 276//182 308//182 307//182 275//182
f 263//183 295//183 294//183 262//183
f 277//184 309//184 308//184 276//184
f 264//185 296//185 295//185 263//185
f 278//186 310//186 309//186 277//186
f 265//187 297//187 296//187 264//187
f 279//188 311//188 310//188 278//188
f 266//189 298//189 297//189 265//189
f 280//190 312//190 311//190 279//190
f 267//191 299//191 298//191 266//191
f 281//192 313//192 312//192 280//192
f 268//193 300//193 299//193 267//193
