# Blender v2.79 (sub 0) OBJ File: 'PictureFrame.blend'
# www.blender.org
mtllib PictureFrame.mtl
o Cube_Cube.002
v -0.746931 -0.804544 -1.268551
v -0.746931 1.195456 -1.268551
v -0.746931 -0.804544 -1.474446
v -0.746931 1.195456 -1.474446
v 0.934845 -0.804544 -1.268551
v 0.934845 1.195456 -1.268551
v 0.934845 -0.804544 -1.474446
v 0.934845 1.195456 -1.474446
v -0.536645 -0.804544 -1.474446
v -0.536645 1.195456 -1.474446
v -0.536645 -0.804544 -1.268551
v -0.536645 1.195456 -1.268551
v 0.696312 1.195456 -1.474446
v 0.696312 -0.804544 -1.268551
v 0.696312 -0.804544 -1.474446
v 0.696312 1.195456 -1.268551
v -0.746931 0.961162 -1.268551
v -0.746931 0.961162 -1.474446
v 0.934845 0.961162 -1.474446
v 0.934845 0.961162 -1.268551
v -0.536645 0.961162 -1.268551
v -0.536645 0.961162 -1.474446
v 0.696312 0.961162 -1.268551
v 0.696312 0.961162 -1.474446
v -0.746931 -0.572523 -1.474446
v 0.934845 -0.572523 -1.474446
v 0.934845 -0.572523 -1.268551
v -0.536645 -0.572523 -1.268551
v -0.536645 -0.572523 -1.474446
v 0.696312 -0.572523 -1.268551
v 0.696312 -0.572523 -1.474446
v -0.746931 -0.572523 -1.268551
v 0.696312 -0.572523 -1.406787
v 0.696312 0.961162 -1.406787
v -0.536645 0.961162 -1.406787
v -0.536645 -0.572523 -1.406787
vt 0.000000 0.000000
vt 0.000000 0.000000
vt 0.000000 0.000000
vt 0.000000 0.000000
vt 0.000000 0.000000
vt 0.000000 0.000000
vt 0.000000 0.000000
vt 0.000000 0.000000
vt 0.000000 0.000000
vt 0.000000 0.000000
vt 0.000000 0.000000
vt 0.000000 0.000000
vt 0.000000 0.000000
vt 0.000000 0.000000
vt 0.000000 0.000000
vt 0.000000 0.000000
vt 0.000000 0.000000
vt 0.000000 0.000000
vt 0.000000 0.000000
vt 0.000000 0.000000
vt 0.000000 0.000000
vt 0.000000 0.000000
vt 0.000000 0.000000
vt 0.000000 0.000000
vt 0.000000 0.000000
vt 0.000000 0.000000
vt 0.000000 0.000000
vt 0.000000 0.000000
vt 0.000000 0.000000
vt 0.000000 0.000000
vt 0.000000 0.000000
vt 0.000000 0.000000
vt 0.803864 0.000090
vt 0.803864 0.999910
vt 0.000090 0.999910
vt 0.000090 0.000090
vt 0.000000 0.000000
vt 0.000000 0.000000
vt 0.000000 0.000000
vt 0.000000 0.000000
vn -1.0000 0.0000 0.0000
vn 0.0000 0.0000 -1.0000
vn 1.0000 0.0000 0.0000
vn 0.0000 0.0000 1.0000
vn 0.0000 -1.0000 0.0000
vn 0.0000 1.0000 0.0000
usemtl Material.009
s off
f 17/1/1 2/2/1 4/3/1 18/4/1
f 24/5/2 13/6/2 8/7/2 19/8/2
f 19/8/3 8/7/3 6/9/3 20/10/3
f 21/11/4 12/12/4 2/2/4 17/1/4
f 15/13/5 7/14/5 5/15/5 14/16/5
f 10/17/6 4/3/6 2/2/6 12/12/6
f 13/6/6 10/17/6 12/12/6 16/18/6
f 3/19/5 9/20/5 11/21/5 1/22/5
f 23/23/4 16/18/4 12/12/4 21/11/4
f 18/4/2 4/3/2 10/17/2 22/24/2
f 20/10/4 6/9/4 16/18/4 23/23/4
f 8/7/6 13/6/6 16/18/6 6/9/6
f 9/20/5 15/13/5 14/16/5 11/21/5
f 22/24/2 10/17/2 13/6/2 24/5/2
f 29/25/2 22/24/2 24/5/2 31/26/2
f 27/27/4 20/10/4 23/23/4 30/28/4
f 25/29/2 18/4/2 22/24/2 29/25/2
f 28/30/4 21/11/4 17/1/4 32/31/4
f 26/32/3 19/8/3 20/10/3 27/27/3
f 31/26/2 24/5/2 19/8/2 26/32/2
f 32/31/1 17/1/1 18/4/1 25/29/1
f 1/22/1 32/31/1 25/29/1 3/19/1
f 15/13/2 31/26/2 26/32/2 7/14/2
f 7/14/3 26/32/3 27/27/3 5/15/3
f 11/21/4 28/30/4 32/31/4 1/22/4
f 14/16/4 30/28/4 28/30/4 11/21/4
f 3/19/2 25/29/2 29/25/2 9/20/2
f 5/15/4 27/27/4 30/28/4 14/16/4
f 9/20/2 29/25/2 31/26/2 15/13/2
f 33/33/4 34/34/4 35/35/4 36/36/4
f 23/23/1 34/37/1 33/38/1 30/28/1
f 21/11/5 35/39/5 34/37/5 23/23/5
f 28/30/3 36/40/3 35/39/3 21/11/3
f 30/28/6 33/38/6 36/40/6 28/30/6
