# 3ds Max Wavefront OBJ Exporter v0.97b - (c)2007 guruware
# File Created: 26.01.2019 15:38:41

mtllib wall_door.mtl

#
# object Floor_Border_Door
#

v  16.2035 -14.0337 -35.9640
v  16.2035 -14.0337 -37.7196
v  55.9201 -14.0337 -37.7196
v  55.9201 -14.0337 -35.9640
v  55.9201 -13.0199 -37.7196
v  55.9201 -13.0199 -35.9640
v  16.3242 -13.9021 -35.9640
v  16.3242 -13.0199 -35.9640
v  16.2035 -13.9021 -35.9640
v  16.2035 -14.0337 -38.9725
v  16.2035 -14.0337 -39.4752
v  55.9201 -14.0337 -39.4752
v  55.9201 -13.0199 -39.4752
v  55.9201 -12.0060 -37.7196
v  55.7779 -12.1204 -37.5081
v  16.3242 -12.1204 -37.5081
v  16.3242 -13.9021 -39.0990
v  16.3242 -10.8778 -37.5081
v  16.3242 -10.9922 -37.7196
v  16.3242 -10.9922 -39.0990
v  16.2035 -13.9021 -39.0990
v  16.2035 -13.9021 -38.9725
v  16.2035 -13.9021 -39.4752
v  16.3242 -13.9021 -39.4752
v  16.3242 -13.0199 -39.4752
v  55.9201 -12.0060 -39.4752
v  55.7779 -10.8778 -37.5081
v  16.3242 -10.9922 -39.4752
v  16.3242 -12.0060 -39.4752
v  55.9201 -10.9922 -37.7196
v  55.9201 -10.9922 -39.4752
v  3.5565 -14.0337 -35.9640
v  -36.3073 -14.0337 -35.9640
v  -35.6272 -14.0337 -37.7196
v  3.5565 -14.0337 -37.7196
v  3.5565 -13.9021 -35.9640
v  3.1098 -13.9021 -35.9640
v  3.1098 -13.0199 -35.9640
v  -36.3427 -13.0199 -35.9640
v  -35.6272 -14.0337 -39.4752
v  3.5565 -14.0337 -39.4752
v  3.5565 -14.0337 -38.9725
v  3.5565 -13.9021 -38.9725
v  3.5565 -13.9021 -39.0990
v  3.1098 -13.9021 -39.0990
v  3.1098 -10.9922 -37.7196
v  3.1098 -10.8778 -37.5081
v  3.1098 -12.1204 -37.5081
v  3.1098 -10.9922 -39.0990
v  -36.4210 -12.1204 -37.5081
v  -35.6272 -13.0199 -37.7196
v  -35.6272 -13.0199 -39.4752
v  3.1098 -13.9021 -39.4752
v  3.1098 -13.0199 -39.4752
v  3.5565 -13.9021 -39.4752
v  3.1098 -12.0060 -39.4752
v  3.1098 -10.9922 -39.4752
v  -35.6272 -10.9922 -37.7196
v  -35.6272 -10.9922 -39.4752
v  -36.2619 -10.8778 -37.5081
v  -35.6272 -12.0060 -37.7196
v  -35.6272 -12.0060 -39.4752
# 62 vertices

vn -0.5774 -0.5774 0.5774
vn -0.7071 -0.7071 -0.0000
vn 0.7071 -0.7071 -0.0000
vn 0.5774 -0.5774 0.5774
vn 1.0000 0.0000 -0.0000
vn 0.5964 0.4685 0.6518
vn -0.3015 0.3015 0.9045
vn -0.5964 0.4684 0.6518
vn -0.5774 0.5774 0.5774
vn -0.5774 -0.5774 -0.5774
vn 0.5774 -0.5774 -0.5773
vn 0.7071 0.0000 -0.7071
vn 0.9905 0.0543 0.1263
vn 0.2428 0.7473 0.6185
vn -0.8645 0.2934 0.4081
vn -0.7071 0.7071 0.0000
vn -0.5631 0.6658 0.4896
vn -0.7427 0.6620 -0.1010
vn -0.7071 0.7071 -0.0000
vn -0.5774 0.5774 -0.5774
vn -0.3015 0.3015 -0.9045
vn -0.7071 0.0000 -0.7071
vn 0.4551 0.6968 0.5545
vn 0.7683 0.6361 0.0717
vn 0.5774 0.5774 -0.5774
vn -0.6319 -0.5766 0.5179
vn -0.6748 -0.7339 -0.0775
vn 0.7071 -0.7071 0.0000
vn 0.5774 0.5774 0.5774
vn 0.3015 0.3015 0.9045
vn 0.5963 0.4686 0.6518
vn -0.6715 0.4451 0.5924
vn 0.5774 -0.5774 -0.5774
vn 0.7071 0.7071 0.0000
vn -0.6747 0.7297 -0.1113
vn 0.5631 0.6658 0.4896
vn -0.9541 0.2443 -0.1732
vn -0.9712 -0.1135 -0.2095
vn 0.3015 0.3015 -0.9045
vn -0.4643 0.7727 -0.4328
vn -0.7719 0.6029 0.2016
vn -0.8475 0.0115 -0.5307
# 42 vertex normals

vt 1.0000 0.4306 0.0000
vt 0.5000 0.4338 0.0000
vt 0.5000 0.0000 0.0000
vt 1.0000 0.0000 0.0000
vt 0.5000 0.3333 0.0000
vt 0.0000 0.3333 0.0000
vt 0.0000 0.0000 0.0000
vt 0.5694 0.0000 0.0000
vt 1.0000 0.3333 0.0000
vt 0.5707 0.0433 0.0000
vt 0.5708 0.3333 0.0000
vt 0.5694 0.0433 0.0000
vt 0.1432 0.4338 0.0000
vt 0.0000 0.4338 0.0000
vt 0.5000 0.6667 0.0000
vt 1.0000 0.6667 0.0000
vt 0.5721 0.6667 0.0000
vt 0.0000 0.6667 0.0000
vt 0.0000 0.9879 0.0000
vt 0.0780 0.9879 0.0000
vt 0.1575 0.8297 0.0000
vt 0.2673 0.8297 0.0000
vt 0.2572 0.8080 0.0000
vt 0.2572 0.6667 0.0000
vt 1.0000 0.9879 0.0000
vt 0.9909 0.6667 0.0000
vt 0.9909 0.6796 0.0000
vt 0.9909 0.9879 0.0000
vt 0.4338 0.0000 0.0000
vt 0.4338 0.0433 0.0000
vt 0.4325 0.0433 0.0000
vt 0.4325 0.3333 0.0000
vt 1.0000 1.0000 0.0000
vt 0.5713 1.0000 0.0000
vt 0.2572 0.6281 0.0000
vt 0.1676 0.6281 0.0000
vt 0.0780 0.6281 0.0000
vt 0.0000 0.6281 0.0000
vt 0.5000 0.4325 0.0000
vt 0.0000 0.4287 0.0000
vt 1.0000 0.4325 0.0000
vt 0.8929 0.4325 0.0000
vt 1.0000 0.6281 0.0000
vt 0.9909 0.6281 0.0000
vt 0.4325 0.6667 0.0000
vt 0.5000 1.0000 0.0000
vt 0.0000 1.0000 0.0000
vt 0.4325 1.0000 0.0000
vt 0.4213 0.6540 0.0000
vt 0.4213 0.6161 0.0000
vt 0.3972 0.6161 0.0000
vt 0.3972 0.6667 0.0000
vt 0.4213 0.6667 0.0000
vt 0.3972 0.7926 0.0000
vt 0.3972 0.9691 0.0000
vt 0.4213 0.9691 0.0000
vt 1.0000 0.5678 0.0000
vt 0.5000 0.5720 0.0000
vt 0.4322 0.0000 0.0000
vt 0.4323 0.0433 0.0000
vt 0.4274 0.0433 0.0000
vt 0.4276 0.3333 0.0000
vt 0.0000 0.5720 0.0000
vt 0.1432 0.5720 0.0000
vt 0.0338 0.9879 0.0000
vt 0.0338 0.6796 0.0000
vt 0.0338 0.6667 0.0000
vt 0.7428 0.8080 0.0000
vt 0.7327 0.8297 0.0000
vt 0.8425 0.8297 0.0000
vt 0.7428 0.6667 0.0000
vt 0.9220 0.9879 0.0000
vt 0.4288 0.6667 0.0000
vt 0.5720 0.0000 0.0000
vt 0.5769 0.0433 0.0000
vt 0.5769 0.3333 0.0000
vt 0.5720 0.0433 0.0000
vt 0.0338 0.6281 0.0000
vt 0.8324 0.6281 0.0000
vt 0.7428 0.6281 0.0000
vt 0.9220 0.6281 0.0000
vt 0.5000 0.5769 0.0000
vt 0.8929 0.5769 0.0000
vt 1.0000 0.5769 0.0000
vt 0.0000 0.5722 0.0000
vt 0.4278 1.0000 0.0000
vt 0.5769 0.6667 0.0000
vt 0.5769 1.0000 0.0000
vt 0.6028 0.6161 0.0000
vt 0.5787 0.6161 0.0000
vt 0.5787 0.6540 0.0000
vt 0.5787 0.6667 0.0000
vt 0.6028 0.6667 0.0000
vt 0.5787 0.9691 0.0000
vt 0.6028 0.9691 0.0000
vt 0.6028 0.7926 0.0000
# 96 texture coords

o Floor_Border_Door
g Floor_Border_Door
usemtl wire_176026026
s 2
f 1/1/1 2/2/2 3/3/3 4/4/4 
s 8
f 3/3/3 5/5/5 6/6/6 4/7/4 
s 64
f 1/8/1 4/4/4 6/9/6 7/10/7 
f 6/9/6 8/11/8 7/10/7 
f 1/8/1 7/10/7 9/12/9 
s 2
f 3/3/3 2/2/2 10/13/2 11/14/10 
f 3/3/3 11/14/10 12/7/11 
s 8
f 12/4/11 13/9/12 5/5/5 3/3/3 
f 6/6/6 5/5/5 14/15/13 
s 64
f 6/9/6 15/16/14 16/17/15 8/11/8 
s 512
f 17/18/16 7/19/7 8/20/8 16/21/15 
f 16/21/15 18/22/17 19/23/18 17/18/16 
f 17/18/16 19/23/18 20/24/19 
s 256
f 7/25/7 17/16/16 21/26/16 22/27/16 
f 9/28/9 7/25/7 22/27/16 
s 16
f 12/7/11 11/29/10 23/30/20 24/31/21 
f 12/7/11 24/31/21 25/32/22 13/6/12 
s 8
f 13/9/12 26/16/12 14/15/13 5/5/5 
f 14/15/13 15/18/14 6/6/6 
s 64
f 15/16/14 27/33/23 18/34/17 16/17/15 
s 512
f 20/24/19 28/35/20 29/36/22 25/37/22 
f 20/24/19 25/37/22 24/38/21 17/18/16 
s 4
f 30/3/24 19/39/18 18/40/17 27/7/23 
f 30/3/24 31/4/25 28/41/20 20/42/19 
f 30/3/24 20/42/19 19/39/18 
s 256
f 17/16/16 24/43/21 23/44/20 21/26/16 
s 16
f 25/32/22 29/45/22 26/18/12 13/6/12 
s 8
f 26/16/12 31/33/25 30/46/24 14/15/13 
f 14/15/13 30/46/24 27/47/23 15/18/14 
s 16
f 29/45/22 28/48/20 31/47/25 26/18/12 
s 4096
f 21/49/16 23/50/20 11/51/10 10/52/2 
f 22/53/16 21/49/16 10/52/2 
f 2/54/2 1/55/1 9/56/9 10/52/2 
f 10/52/2 9/56/9 22/53/16 
s 2
f 32/57/4 33/33/26 34/46/27 35/58/28 
s 64
f 33/7/26 32/59/4 36/60/29 37/61/30 
f 33/7/26 37/61/30 38/62/31 39/6/32 
s 32
f 34/3/27 33/4/26 39/9/32 
s 2
f 34/46/27 40/47/10 41/63/33 42/64/28 
f 35/58/28 34/46/27 42/64/28 
s 256
f 37/19/30 36/65/29 43/66/34 44/67/34 
f 37/19/30 44/67/34 45/18/34 
s 2048
f 46/68/35 47/69/36 48/70/8 49/71/34 
f 48/70/8 38/72/31 37/25/30 49/71/34 
f 49/71/34 37/25/30 45/16/34 
s 64
f 38/62/31 48/73/8 50/18/37 39/6/32 
s 32
f 39/9/32 51/5/38 34/3/27 
f 34/3/27 51/5/38 52/6/22 40/7/10 
s 16
f 41/74/33 40/4/10 52/9/22 53/75/39 
f 52/9/22 54/76/12 53/75/39 
f 41/74/33 53/75/39 55/77/25 
s 256
f 53/38/39 45/18/34 44/67/34 55/78/25 
s 2048
f 56/79/12 57/80/25 49/71/34 54/81/12 
f 53/43/39 54/81/12 49/71/34 45/16/34 
s 4
f 58/46/40 46/82/35 49/83/34 59/33/20 
f 57/84/25 59/33/20 49/83/34 
f 58/46/40 60/47/41 47/85/36 46/82/35 
s 64
f 48/73/8 47/86/36 60/47/41 50/18/37 
s 32
f 51/5/38 39/9/32 50/16/37 
f 51/5/38 61/15/42 62/18/22 52/6/22 
s 16
f 52/9/22 62/16/22 56/87/12 54/76/12 
f 62/16/22 59/33/20 57/88/25 56/87/12 
s 32
f 61/15/42 58/46/40 59/47/20 62/18/22 
f 60/33/41 58/46/40 61/15/42 
f 61/15/42 50/16/37 60/33/41 
f 50/16/37 61/15/42 51/5/38 
s 16384
f 41/89/33 55/90/25 44/91/34 43/92/34 
f 42/93/28 41/89/33 43/92/34 
f 43/92/34 36/94/29 32/95/4 35/96/28 
f 43/92/34 35/96/28 42/93/28 
# 46 polygons - 24 triangles

#
# object Door_Wall001
#

v  -35.6067 -14.0337 -41.3325
v  -35.6067 -6.6025 -41.3325
v  -22.6316 -6.6025 -41.3325
v  -22.6316 -14.0337 -41.3325
v  -9.6565 -6.6025 -41.3325
v  -9.6565 -14.0337 -41.3325
v  3.3186 -6.6025 -41.3325
v  3.3186 -14.0337 -41.3325
v  16.3096 -14.0337 -41.3325
v  16.2937 -6.6025 -41.3325
v  29.2688 -6.6025 -41.3325
v  29.2688 -14.0337 -41.3325
v  42.2438 -6.6025 -41.3325
v  42.2438 -14.0337 -41.3325
v  55.2189 -6.6025 -41.3325
v  55.2189 -14.0337 -41.3325
v  -35.6067 0.8287 -41.3325
v  -22.6316 0.8287 -41.3325
v  -9.6565 0.8287 -41.3325
v  3.3186 0.8287 -41.3325
v  16.2937 0.8287 -41.3325
v  29.2688 0.8287 -41.3325
v  42.2438 0.8287 -41.3325
v  55.2189 0.8287 -41.3325
v  -35.6067 8.2599 -41.3325
v  -22.6316 8.2599 -41.3325
v  -9.6565 8.2599 -41.3325
v  3.3186 8.2599 -41.3325
v  16.3096 8.2599 -41.3325
v  29.2688 8.2599 -41.3325
v  42.2438 8.2599 -41.3325
v  55.2189 8.2599 -41.3325
v  -35.6067 15.6910 -41.3325
v  -22.6316 15.6910 -41.3325
v  -9.6565 15.6910 -41.3325
v  3.3186 15.6910 -41.3325
v  16.2937 15.6910 -41.3325
v  29.2688 15.6910 -41.3325
v  42.2438 15.6910 -41.3325
v  55.2189 15.6910 -41.3325
v  -35.6067 23.1222 -41.3325
v  -22.6316 23.1222 -41.3325
v  -9.6565 23.1222 -41.3325
v  3.3186 23.1222 -41.3325
v  16.2937 23.1222 -41.3325
v  29.2688 23.1222 -41.3325
v  42.2438 23.1222 -41.3325
v  55.2189 23.1222 -41.3325
v  -35.6067 -14.0337 -37.2041
v  -22.6316 -14.0337 -37.2041
v  -22.6316 -6.6025 -37.2041
v  -35.6067 -6.6025 -37.2041
v  -9.6565 -14.0337 -37.2041
v  -9.6565 -6.6025 -37.2041
v  3.3186 -14.0337 -37.2041
v  3.3186 -6.6025 -37.2041
v  16.3096 -14.0337 -37.2041
v  29.2688 -14.0337 -37.2041
v  29.2688 -6.6025 -37.2041
v  16.2937 -6.6025 -37.2041
v  42.2438 -14.0337 -37.2041
v  42.2438 -6.6025 -37.2041
v  55.2189 -14.0337 -37.2041
v  55.2189 -6.6025 -37.2041
v  -22.6316 0.8287 -37.2041
v  -35.6067 0.8287 -37.2041
v  -9.6565 0.8287 -37.2041
v  3.3186 0.8287 -37.2041
v  29.2688 0.8287 -37.2041
v  16.2937 0.8287 -37.2041
v  42.2438 0.8287 -37.2041
v  55.2189 0.8287 -37.2041
v  -22.6316 8.2599 -37.2041
v  -35.6067 8.2599 -37.2041
v  -9.6565 8.2599 -37.2041
v  3.3186 8.2599 -37.2041
v  29.2688 8.2599 -37.2041
v  16.3096 8.2599 -37.2041
v  42.2438 8.2599 -37.2041
v  55.2189 8.2599 -37.2041
v  -22.6316 15.6910 -37.2041
v  -35.6067 15.6910 -37.2041
v  -9.6565 15.6910 -37.2041
v  3.3186 15.6910 -37.2041
v  16.2937 15.6910 -37.2041
v  29.2688 15.6910 -37.2041
v  42.2438 15.6910 -37.2041
v  55.2189 15.6910 -37.2041
v  -22.6316 23.1222 -37.2041
v  -35.6067 23.1222 -37.2041
v  -9.6565 23.1222 -37.2041
v  3.3186 23.1222 -37.2041
v  16.2937 23.1222 -37.2041
v  29.2688 23.1222 -37.2041
v  42.2438 23.1222 -37.2041
v  55.2189 23.1222 -37.2041
# 96 vertices

vn -0.5774 -0.5774 -0.5774
vn -0.7071 0.0000 -0.7071
vn 0.0000 0.0000 -1.0000
vn 0.0000 -0.7071 -0.7071
vn -0.0822 -0.7047 -0.7047
vn 0.0000 -0.4470 -0.8945
vn 0.7071 0.0000 -0.7071
vn 0.5774 -0.5774 -0.5774
vn -0.3065 0.2464 -0.9194
vn 0.0000 0.2425 -0.9702
vn -0.5774 0.5774 -0.5774
vn 0.0000 0.7071 -0.7071
vn 0.5774 0.5774 -0.5774
vn -0.5774 -0.5774 0.5774
vn 0.0000 -0.7071 0.7071
vn 0.0000 -0.0000 1.0000
vn -0.7071 -0.0000 0.7071
vn 0.0000 -0.7069 0.7073
vn 0.5774 -0.5774 0.5774
vn 0.7071 -0.0000 0.7071
vn -0.3162 -0.0000 0.9487
vn 0.0000 0.4110 0.9116
vn 0.0000 0.7071 0.7071
vn -0.5774 0.5774 0.5774
vn 0.5774 0.5774 0.5774
vn -1.0000 0.0000 -0.0000
vn 0.0000 1.0000 0.0000
vn 1.0000 0.0000 -0.0000
vn 0.0000 -1.0000 -0.0000
# 29 vertex normals

vt 1.0000 0.0000 0.0000
vt 1.0000 0.2000 0.0000
vt 0.8571 0.2000 0.0000
vt 0.8571 0.0000 0.0000
vt 0.7143 0.2000 0.0000
vt 0.7143 0.0000 0.0000
vt 0.5714 0.2000 0.0000
vt 0.5714 0.0000 0.0000
vt 0.4286 0.0000 0.0000
vt 0.4286 0.2000 0.0000
vt 0.2857 0.2000 0.0000
vt 0.2857 0.0000 0.0000
vt 0.1429 0.2000 0.0000
vt 0.1429 0.0000 0.0000
vt 0.0000 0.2000 0.0000
vt 0.0000 0.0000 0.0000
vt 1.0000 0.4000 0.0000
vt 0.8571 0.4000 0.0000
vt 0.7143 0.4000 0.0000
vt 0.5714 0.4000 0.0000
vt 0.4286 0.4000 0.0000
vt 0.2857 0.4000 0.0000
vt 0.1429 0.4000 0.0000
vt 0.0000 0.4000 0.0000
vt 1.0000 0.6000 0.0000
vt 0.8571 0.6000 0.0000
vt 0.7143 0.6000 0.0000
vt 0.5714 0.6000 0.0000
vt 0.4286 0.6000 0.0000
vt 0.2857 0.6000 0.0000
vt 0.1429 0.6000 0.0000
vt 0.0000 0.6000 0.0000
vt 1.0000 0.8000 0.0000
vt 0.8571 0.8000 0.0000
vt 0.7143 0.8000 0.0000
vt 0.5714 0.8000 0.0000
vt 0.4286 0.8000 0.0000
vt 0.2857 0.8000 0.0000
vt 0.1429 0.8000 0.0000
vt 0.0000 0.8000 0.0000
vt 1.0000 1.0000 0.0000
vt 0.8571 1.0000 0.0000
vt 0.7143 1.0000 0.0000
vt 0.5714 1.0000 0.0000
vt 0.4286 1.0000 0.0000
vt 0.2857 1.0000 0.0000
vt 0.1429 1.0000 0.0000
vt 0.0000 1.0000 0.0000
vt 0.2000 0.0000 0.0000
vt 0.2000 1.0000 0.0000
vt 0.4000 0.0000 0.0000
vt 0.4000 1.0000 0.0000
vt 0.6000 0.0000 0.0000
vt 0.6000 1.0000 0.0000
vt 0.8000 0.0000 0.0000
vt 0.8000 1.0000 0.0000
# 56 texture coords

o Door_Wall001
g Door_Wall001
usemtl wire_140088225
s 2
f 63/97/43 64/98/44 65/99/45 66/100/46 
f 66/100/46 65/99/45 67/101/45 68/102/46 
f 68/102/46 67/101/45 69/103/45 70/104/47 
f 71/105/48 72/106/45 73/107/45 74/108/46 
f 74/108/46 73/107/45 75/109/45 76/110/46 
f 76/110/46 75/109/45 77/111/49 78/112/50 
f 64/98/44 79/113/44 80/114/45 65/99/45 
f 65/99/45 80/114/45 81/115/45 67/101/45 
f 67/101/45 81/115/45 82/116/45 69/103/45 
f 72/106/45 83/117/45 84/118/45 73/107/45 
f 73/107/45 84/118/45 85/119/45 75/109/45 
f 75/109/45 85/119/45 86/120/49 77/111/49 
f 79/113/44 87/121/44 88/122/45 80/114/45 
f 80/114/45 88/122/45 89/123/45 81/115/45 
f 81/115/45 89/123/45 90/124/51 82/116/45 
f 83/117/45 91/125/52 92/126/45 84/118/45 
f 84/118/45 92/126/45 93/127/45 85/119/45 
f 85/119/45 93/127/45 94/128/49 86/120/49 
f 87/121/44 95/129/44 96/130/45 88/122/45 
f 88/122/45 96/130/45 97/131/45 89/123/45 
f 89/123/45 97/131/45 98/132/45 90/124/51 
f 90/124/51 98/132/45 99/133/45 91/125/52 
f 91/125/52 99/133/45 100/134/45 92/126/45 
f 92/126/45 100/134/45 101/135/45 93/127/45 
f 93/127/45 101/135/45 102/136/49 94/128/49 
f 95/129/44 103/137/53 104/138/54 96/130/45 
f 96/130/45 104/138/54 105/139/54 97/131/45 
f 97/131/45 105/139/54 106/140/54 98/132/45 
f 98/132/45 106/140/54 107/141/54 99/133/45 
f 99/133/45 107/141/54 108/142/54 100/134/45 
f 100/134/45 108/142/54 109/143/54 101/135/45 
f 101/135/45 109/143/54 110/144/55 102/136/49 
s 4
f 111/112/56 112/110/57 113/109/58 114/111/59 
f 112/110/57 115/108/57 116/107/58 113/109/58 
f 115/108/57 117/105/57 118/106/58 116/107/58 
f 119/104/60 120/102/57 121/101/58 122/103/58 
f 120/102/57 123/100/57 124/99/58 121/101/58 
f 123/100/57 125/97/61 126/98/62 124/99/58 
f 114/111/59 113/109/58 127/119/58 128/120/59 
f 113/109/58 116/107/58 129/118/58 127/119/58 
f 116/107/58 118/106/58 130/117/58 129/118/58 
f 122/103/58 121/101/58 131/115/58 132/116/58 
f 121/101/58 124/99/58 133/114/58 131/115/58 
f 124/99/58 126/98/62 134/113/62 133/114/58 
f 128/120/59 127/119/58 135/127/58 136/128/59 
f 127/119/58 129/118/58 137/126/58 135/127/58 
f 129/118/58 130/117/58 138/125/63 137/126/58 
f 132/116/58 131/115/58 139/123/58 140/124/64 
f 131/115/58 133/114/58 141/122/58 139/123/58 
f 133/114/58 134/113/62 142/121/62 141/122/58 
f 136/128/59 135/127/58 143/135/58 144/136/59 
f 135/127/58 137/126/58 145/134/58 143/135/58 
f 137/126/58 138/125/63 146/133/58 145/134/58 
f 138/125/63 140/124/64 147/132/58 146/133/58 
f 140/124/64 139/123/58 148/131/58 147/132/58 
f 139/123/58 141/122/58 149/130/58 148/131/58 
f 141/122/58 142/121/62 150/129/62 149/130/58 
f 144/136/59 143/135/58 151/143/65 152/144/66 
f 143/135/58 145/134/58 153/142/65 151/143/65 
f 145/134/58 146/133/58 154/141/65 153/142/65 
f 146/133/58 147/132/58 155/140/65 154/141/65 
f 147/132/58 148/131/58 156/139/65 155/140/65 
f 148/131/58 149/130/58 157/138/65 156/139/65 
f 149/130/58 150/129/62 158/137/67 157/138/65 
s 8
f 63/112/43 66/110/46 112/143/57 111/144/56 
f 66/110/46 68/108/46 115/142/57 112/143/57 
f 68/108/46 70/105/47 117/141/57 115/142/57 
f 71/104/48 74/102/46 120/139/57 119/140/60 
f 74/102/46 76/100/46 123/138/57 120/139/57 
f 76/100/46 78/97/50 125/137/61 123/138/57 
s 16
f 78/112/50 77/145/49 126/146/62 125/144/61 
f 77/145/49 86/147/49 134/148/62 126/146/62 
f 86/147/49 94/149/49 142/150/62 134/148/62 
f 94/149/49 102/151/49 150/152/62 142/150/62 
f 102/151/49 110/97/55 158/137/67 150/152/62 
s 32
f 110/112/55 109/110/54 157/143/65 158/144/67 
f 109/110/54 108/108/54 156/142/65 157/143/65 
f 108/108/54 107/105/54 155/141/65 156/142/65 
f 107/105/54 106/104/54 154/140/65 155/141/65 
f 106/104/54 105/102/54 153/139/65 154/140/65 
f 105/102/54 104/100/54 151/138/65 153/139/65 
f 104/100/54 103/97/53 152/137/66 151/138/65 
s 64
f 103/112/53 95/145/44 144/146/59 152/144/66 
f 95/145/44 87/147/44 136/148/59 144/146/59 
f 87/147/44 79/149/44 128/150/59 136/148/59 
f 79/149/44 64/151/44 114/152/59 128/150/59 
f 64/151/44 63/97/43 111/137/56 114/152/59 
s off
f 91/125/61 140/124/50 119/104/55 71/105/67 
f 138/125/63 90/124/51 70/104/47 
f 138/125/63 70/104/68 117/105/68 
f 90/124/51 138/125/69 140/124/69 
f 90/124/69 140/124/64 91/125/69 
f 119/104/70 71/105/71 71/105/67 
f 71/105/67 119/104/55 119/104/60 
f 91/125/52 140/124/64 140/124/50 91/125/61 
f 140/124/64 119/104/60 119/104/55 140/124/50 
f 71/105/48 91/125/52 91/125/61 71/105/67 
# 91 polygons - 6 triangles

#
# object Door_Border
#

v  16.5834 8.3439 -41.1546
v  3.0159 8.3439 -41.1546
v  3.0159 8.3439 -36.9751
v  16.5834 8.3439 -36.9751
v  16.5834 -14.0337 -41.1546
v  16.5834 -14.0337 -36.9751
v  3.0159 -14.0337 -36.9751
v  3.0159 -14.0337 -41.1546
v  15.4379 -14.0337 -36.9751
v  15.4379 -14.0337 -41.1546
v  4.1614 -14.0337 -41.1546
v  4.1614 -14.0337 -36.9751
v  4.1614 7.4169 -41.1546
v  4.1614 7.4169 -36.9751
v  15.4379 7.4169 -36.9751
v  15.4379 7.4169 -41.1546
# 16 vertices

vn 0.5774 0.5774 -0.5774
vn -0.5774 0.5774 -0.5774
vn -0.5774 0.5774 0.5774
vn 0.5774 0.5774 0.5774
vn 0.5774 -0.5774 -0.5774
vn 0.5774 -0.5774 0.5774
vn -0.5774 -0.5774 0.5774
vn -0.5774 -0.5774 -0.5774
vn 0.3015 -0.3015 -0.9045
vn 0.3015 -0.3015 0.9045
vn -0.3015 -0.3015 0.9045
vn -0.3015 -0.3015 -0.9045
# 12 vertex normals

vt 1.0000 1.0000 0.0000
vt 0.0000 1.0000 0.0000
vt 0.0000 0.0000 0.0000
vt 1.0000 0.0000 0.0000
vt 0.0844 0.0000 0.0000
vt 0.0844 1.0000 0.0000
vt 0.9156 1.0000 0.0000
vt 0.9156 0.0000 0.0000
vt 0.9156 0.9586 0.0000
vt 0.0844 0.9586 0.0000
vt 0.0424 1.0000 0.0000
vt 0.9576 1.0000 0.0000
vt 0.9576 0.0000 0.0000
vt 0.0424 0.0000 0.0000
vt 0.0000 0.9576 0.0000
vt 1.0000 0.9576 0.0000
vt 1.0000 0.0424 0.0000
vt 0.0000 0.0424 0.0000
# 18 texture coords

o Door_Border
g Door_Border
usemtl wire_148177027
s 4
f 159/153/72 160/154/73 161/155/74 162/156/75 
s 16
f 163/156/76 159/153/72 162/154/75 164/155/77 
s 64
f 165/156/78 161/153/74 160/154/73 166/155/79 
s 2
f 163/154/76 164/155/77 167/157/78 168/158/79 
f 166/153/79 169/159/76 170/160/77 165/156/78 
s 32
f 171/161/80 169/160/76 166/156/79 160/153/73 
s 8
f 172/162/81 161/154/74 165/155/78 170/157/77 
s 1
f 171/163/80 172/164/81 170/165/77 169/166/76 
f 173/163/82 174/164/83 168/165/79 167/166/78 
s 2
f 171/167/80 174/168/83 173/169/82 172/170/81 
s 32
f 174/162/83 159/154/72 163/155/76 168/157/79 
f 174/162/83 171/161/80 160/153/73 159/154/72 
s 8
f 164/156/77 162/153/75 173/161/82 167/160/78 
f 161/154/74 172/162/81 173/161/82 162/153/75 
# 14 polygons

