# 3ds Max Wavefront OBJ Exporter v0.97b - (c)2007 guruware
# File Created: 26.01.2019 15:35:53

mtllib wall_front.mtl

#
# object Front_Wall
#

v  59.3628 -14.0337 -41.3421
v  59.3628 23.1222 -41.3421
v  59.3628 23.1222 41.1867
v  59.3628 -14.0337 41.1867
v  55.2344 -14.0337 -41.3421
v  55.2344 -14.0337 41.1867
v  55.2343 23.1222 41.1867
v  55.2343 23.1222 -41.3421
# 8 vertices

vn 0.5774 -0.5774 -0.5774
vn 0.5774 0.5774 -0.5774
vn 0.5774 0.5774 0.5774
vn 0.5774 -0.5774 0.5774
vn -0.5774 -0.5774 -0.5774
vn -0.5774 -0.5774 0.5774
vn -0.5774 0.5774 0.5774
vn -0.5774 0.5774 -0.5774
# 8 vertex normals

vt 1.0000 0.0000 0.0000
vt 1.0000 1.0000 0.0000
vt 0.0000 1.0000 0.0000
vt 0.0000 0.0000 0.0000
# 4 texture coords

o Front_Wall
g Front_Wall
usemtl wire_140088225
s 2
f 1/1/1 2/2/2 3/3/3 4/4/4 
s 4
f 5/4/5 6/1/6 7/2/7 8/3/8 
s 8
f 1/4/1 4/1/4 6/2/6 5/3/5 
s 16
f 4/4/4 3/1/3 7/2/7 6/3/6 
s 32
f 3/4/3 2/1/2 8/2/8 7/3/7 
s 64
f 2/4/2 1/1/1 5/2/5 8/3/8 
# 6 polygons

#
# object Floor_Border_Front
#

v  54.0290 -14.0337 36.9962
v  54.0290 -14.0337 -37.1898
v  55.4412 -14.0337 -36.6428
v  55.4412 -14.0337 36.9962
v  56.8534 -14.0337 -36.6428
v  56.8534 -14.0337 36.9962
v  55.2711 -11.4952 36.8819
v  55.4412 -11.5872 36.9962
v  55.4412 -11.5872 -36.6428
v  55.2711 -11.4952 -37.1534
v  56.8534 -11.5872 36.9962
v  56.8534 -11.5872 -36.6428
v  55.4412 -13.2182 36.9962
v  54.0290 -13.2182 36.9962
v  56.8534 -13.2182 36.9962
v  55.4412 -12.4027 36.9962
v  55.2711 -12.4947 36.8819
v  56.8534 -12.4027 36.9962
v  56.8534 -13.2182 -36.6428
v  56.8534 -12.4027 -36.6428
v  55.4412 -13.2182 -36.6428
v  54.0290 -13.2182 -37.2184
v  55.4412 -12.4027 -36.6428
v  55.2711 -12.4947 -37.2813
# 24 vertices

vn -0.5774 -0.5774 0.5774
vn -0.5179 -0.5766 -0.6319
vn 0.0747 -0.7327 -0.6765
vn 0.0000 -0.7071 0.7071
vn 0.5774 -0.5774 -0.5774
vn 0.5774 -0.5774 0.5774
vn -0.5545 0.6968 0.4551
vn -0.0717 0.6361 0.7683
vn 0.4328 0.7727 -0.4643
vn -0.2111 0.6205 -0.7553
vn 0.5774 0.5774 0.5774
vn 0.5774 0.5774 -0.5774
vn 0.0000 0.0000 1.0000
vn -0.6486 0.4709 0.5979
vn 0.7071 0.0000 0.7071
vn -0.1840 0.0000 0.9829
vn -0.6185 0.7473 0.2428
vn 0.7071 0.0000 -0.7071
vn 0.1153 0.0000 -0.9933
vn -0.5908 0.4436 -0.6739
vn 0.5389 0.0000 -0.8423
vn -0.1491 -0.5136 -0.8450
# 22 vertex normals

vt 1.0000 0.0000 0.0000
vt 1.0000 1.0000 0.0000
vt 0.5000 1.0000 0.0000
vt 0.5000 0.0000 0.0000
vt 0.0000 1.0000 0.0000
vt 0.0000 0.0000 0.0000
vt 0.5000 0.3333 0.0000
vt 0.0000 0.3333 0.0000
vt 1.0000 0.3333 0.0000
vt 0.5000 0.6667 0.0000
vt 0.0000 0.6667 0.0000
vt 1.0000 0.6667 0.0000
# 12 texture coords

o Floor_Border_Front
g Floor_Border_Front
usemtl wire_176026026
s 2
f 9/5/9 10/6/10 11/7/11 12/8/12 
f 12/8/12 11/7/11 13/9/13 14/10/14 
s 4
f 15/10/15 16/8/16 17/7/17 18/9/18 
f 16/8/16 19/5/19 20/6/20 17/7/17 
s 8
f 9/10/9 12/8/12 21/11/21 22/12/22 
f 12/8/12 14/5/14 23/13/23 21/11/21 
f 22/12/22 21/11/21 24/14/24 25/15/25 
f 21/11/21 23/13/23 26/16/23 24/14/24 
f 25/15/25 24/14/24 16/7/16 15/9/15 
f 24/14/24 26/16/23 19/6/19 16/7/16 
s 16
f 14/10/14 13/5/13 27/13/26 23/12/23 
f 23/12/23 27/13/26 28/16/26 26/15/23 
f 26/15/23 28/16/26 20/6/20 19/9/19 
s 32
f 13/10/13 11/8/11 29/11/27 27/12/26 
f 11/8/11 10/5/10 30/13/28 29/11/27 
f 27/12/26 29/11/27 31/14/29 28/15/26 
f 29/11/27 30/13/28 32/16/30 31/14/29 
f 28/15/26 31/14/29 17/7/17 20/9/20 
f 31/14/29 32/16/30 18/6/18 17/7/17 
s 64
f 10/10/10 9/5/9 22/13/22 30/12/28 
f 30/12/28 22/13/22 25/16/25 32/15/30 
f 32/15/30 25/16/25 15/6/15 18/9/18 
# 22 polygons

